<svg id="Слой_1" xmlns="http://www.w3.org/2000/svg" viewBox="0 0 311.8 283.5"><style>.st0{fill:#afafaf}.st0,.st1,.st2{fill-rule:evenodd;clip-rule:evenodd}.st1{fill:#6b6966}.st2{stroke:#d24a43;stroke-width:.7087;stroke-miterlimit:2.6131}.st2,.st3{fill:#fff}.st3,.st4{fill-rule:evenodd;clip-rule:evenodd}.st5{fill:#d24a43}.st5,.st6,.st7{fill-rule:evenodd;clip-rule:evenodd}.st6{stroke:#3eb5f1;stroke-width:.7087;stroke-miterlimit:2.6131;fill:#fff}.st7{fill:#fff687}</style><path class="st0" d="M.6 103.8h310.2v178.7H.6z"/><path class="st1" d="M109.2 214.1l-5.4-.4-10.3 12-10.2 18.9-2.4-1.8 10.2-19.1.1-.1.1-.2 11-12.7.4-.5.7.1 6 .4z"/><path class="st2" d="M.6 144.2v-40.4h95.3l4.9 18.7-11.8 4.2 1.3 8.8 4.4-.3-2.6 20.5z"/><path class="st3" d="M63.9 162.9H70V242h70.3v44.9h-4.9v-39.2H70v35.6h-6.1z"/><path class="st4" d="M13.4 128l-1.6.3c-.1-.4-.2-.7-.4-.9-.2-.2-.4-.3-.7-.3-.4 0-.7.2-1 .5-.2.3-.4.9-.4 1.7 0 .9.1 1.5.4 1.8.2.4.6.5 1 .5.3 0 .6-.1.8-.3.2-.2.3-.6.4-1.1l1.6.3c-.2.9-.5 1.5-1 2-.5.4-1.1.7-1.9.7-.9 0-1.6-.3-2.1-1s-.8-1.6-.8-2.8c0-1.2.3-2.1.8-2.8.5-.7 1.3-1 2.2-1 .7 0 1.3.2 1.8.6.4.4.7 1 .9 1.8zm.5-2.2h1.7l1.5 5.2 1.4-5.2h1.7l-2.2 7-.4 1.3c-.1.4-.3.7-.4 1-.1.2-.3.4-.4.5l-.6.3c-.2.1-.5.1-.8.1-.3 0-.6 0-.9-.1l-.1-1.5c.3.1.5.1.7.1.4 0 .7-.1.8-.4.2-.3.3-.6.4-1l-2.4-7.3zm7.3 0h5.5v7.3H25v-5.7h-2.2v5.7h-1.6v-7.3zm10.8 5l1.6.3c-.2.7-.5 1.2-1 1.6-.5.4-1 .6-1.7.6-1.1 0-1.9-.4-2.4-1.2-.4-.7-.6-1.5-.6-2.5 0-1.2.3-2.2.8-2.8.5-.7 1.2-1 2-1 .9 0 1.6.4 2.2 1.1.5.7.8 1.8.8 3.3h-4.1c0 .6.1 1 .4 1.3.2.3.6.5.9.5.3 0 .5-.1.6-.2.3-.4.4-.6.5-1zm.1-1.9c0-.6-.1-1-.4-1.3-.2-.3-.5-.4-.8-.4-.4 0-.6.2-.9.5-.2.3-.3.7-.3 1.3h2.4v-.1zm2.9-3.1h1.5v1.1c.2-.4.5-.7.8-.9.3-.2.7-.3 1.1-.3.7 0 1.3.3 1.8 1s.7 1.6.7 2.8c0 1.2-.3 2.2-.8 2.8-.5.7-1.1 1-1.8 1-.3 0-.6-.1-.9-.2-.3-.2-.6-.4-.9-.8v3.6H35v-10.1zm1.6 3.6c0 .8.1 1.4.4 1.8.3.4.6.6 1 .6s.7-.2.9-.5c.3-.4.4-.9.4-1.8 0-.8-.1-1.3-.4-1.7-.3-.4-.6-.6-1-.6s-.7.2-1 .5c-.2.4-.3.9-.3 1.7zm5.6-3.6h2l1.5 5.1 1.5-5.1h2v7.3h-1.4v-4.8l-1.5 4.8H45l-1.4-4.8v4.8h-1.4v-7.3zm9.7 2.3l-1.5-.3c.2-.7.5-1.2.9-1.6.4-.3 1-.5 1.8-.5.7 0 1.3.1 1.6.3.4.2.6.5.7.8.1.3.2.9.2 1.7v2.2c0 .6 0 1.1.1 1.4.1.3.1.6.3 1h-1.6c0-.1-.1-.3-.2-.6 0-.1 0-.2-.1-.2-.3.3-.6.6-.9.7-.3.2-.7.2-1 .2-.6 0-1.1-.2-1.5-.6-.4-.4-.5-.9-.5-1.5 0-.4.1-.8.2-1.1.2-.3.4-.6.7-.7.3-.2.7-.3 1.3-.4.8-.2 1.3-.3 1.6-.5v-.2c0-.4-.1-.6-.2-.8-.2-.2-.4-.2-.9-.2-.3 0-.5.1-.7.2 0 .1-.2.3-.3.7zm2.2 1.5c-.2.1-.5.2-1 .3-.5.1-.7.2-.9.3-.2.2-.3.4-.3.7 0 .3.1.5.3.7.2.2.4.3.6.3.3 0 .6-.1.8-.3.2-.2.3-.4.4-.6 0-.2.1-.5.1-.9v-.5zm3.2-3.8h1.5v1.1c.2-.4.5-.7.8-.9.3-.2.7-.3 1.1-.3.7 0 1.3.3 1.8 1s.7 1.6.7 2.8c0 1.2-.3 2.2-.8 2.8-.5.7-1.1 1-1.8 1-.3 0-.6-.1-.9-.2-.3-.2-.6-.4-.9-.8v3.6h-1.6v-10.1h.1zm1.6 3.6c0 .8.1 1.4.4 1.8.3.4.6.6 1 .6s.7-.2.9-.5c.3-.4.4-.9.4-1.8 0-.8-.1-1.3-.4-1.7-.3-.4-.6-.6-1-.6s-.7.2-1 .5c-.2.4-.3.9-.3 1.7zm5.6-3.6h1.6v3c.3 0 .5-.1.6-.3.1-.2.2-.5.4-1 .2-.7.4-1.2.7-1.4.2-.2.6-.3 1-.3h.6v1.3c-.4 0-.7 0-.8.1-.1.1-.3.4-.4.9-.2.7-.5 1.1-.8 1.2.5.2.9.7 1.3 1.6 0 0 0 .1.1.1l.9 2H68l-.8-2.1c-.2-.4-.3-.7-.4-.8-.1-.1-.3-.2-.5-.2v3.1h-1.6v-7.2h-.2zm9.6 5l1.6.3c-.2.7-.5 1.2-1 1.6-.5.4-1 .6-1.7.6-1.1 0-1.9-.4-2.4-1.2-.4-.7-.6-1.5-.6-2.5 0-1.2.3-2.2.8-2.8.5-.7 1.2-1 2-1 .9 0 1.6.4 2.2 1.1.5.7.8 1.8.8 3.3h-4.1c0 .6.1 1 .4 1.3.2.3.6.5.9.5.3 0 .5-.1.6-.2.2-.4.4-.6.5-1zm.1-1.9c0-.6-.1-1-.4-1.3-.2-.3-.5-.4-.8-.4-.4 0-.6.2-.9.5-.2.3-.3.7-.3 1.3h2.4v-.1zm2-3.1h5.6v1.6h-2v5.7h-1.6v-5.7h-2v-1.6zm95.2 97.5h12.5v3H256v-3.8h6v14.2h-6V234h-46.4v4.1h-38.3v-14.8z"/><path class="st3" d="M147.4 283v-49.2H98.6v4.7h-4.8v-10.4h58.5V283zm-53.1-32.6h11.1v31.8H94.3zm-42.6-18.2h6.8v14h-6.8zm0 17h6.8v13h-6.8zm0 16.3h6.8v17.4h-6.8zm-5.8-33.6h2.6v9.5h-2.6zm.9 18.5h2.6v11.3h-2.6zM19.3 266h3.1v5.7h-3.1zm10.4 7.8h6.5v9.1h-6.5z"/><path class="st3" d="M26.7 256.8v3H16.5V280h10.3v2.9H12.9v-.5h-1.5v-20.1H.7v-6h11.2v-10h2.8v-2.4H1.1v-9.8h19.7v-1.6h17.5v24.3zM48 228.5h10.3v-13.7h-7.4v-2.1h-6.6v5.4H48zm107.2-25h3.9v9.1l11.1.5v5.8l-11.1-.5v12.3h-3.9v-12.5l-48-2.2v-5.7l48 2.2zm108.8 35h-38.1v2.1h-58.7v-5.1h-4v7.3h-7.6v6.3h1.9v5.7h3.9v-5.7h4.6v-3.8h7.9v37.2h7.1v-37.2h8.7v37.2h5.2v-37.2h5.6v37.2h7.2v-37.2h8v37.2h5.2v-37.2h6.3v37.2h7.1v-37.2h8.7v37.2h5.2v-37.2h5.1v37.2h7.1v-37.2h3.6zm13.4-15.4h32.3v9.7h-23.9v24.9h-8.4zm-.1 44.6h7v14.9h-7zm-24.8-127.3l-38 4.5-1.5 21.8 42.9.9zm-70.2 4.9h6.1v6.6h20v7.7h-26.1v-14.3zM262 112h12.8l4.1 36.2h-12.8z"/><path class="st3" d="M140.3 129.9l20.9 1.5.9-10.1h8.4l-1 10.7 17.9 1.3v9.9l-18.8-1.3-1.1 12.1H159l1.2-12.7-19.9-1.5zm107-25.4l-48.8.3 7.6 32.3 45.4-14.8zm-52.8.3l-14.8-.3-82.3 28.1 1.2 5.1z"/><path class="st3" d="M197.1 104.2l-5.6.5 8.1 37.2 5.8-1.2z"/><path class="st1" d="M59.9 222.2l104.8 2.8 3.3-5.3.4-.7h95.5v3.4h-94l-3.3 5.4-.5.7h-.7l-105.5-2.9zm103.4 26.9h2.9v33.4h-2.9zm-90-1.4h2.9v34.9h-2.9zm7.8 0H84v34.9h-2.9zm-41.9-53.8l-1.5 21.5-.1.9-.6.4-24.9 17.1-.4.3H1v-3.5h10l23.9-16.4 1.4-20.6z"/><path class="st1" d="M17.4 201.2l34.9 5.9.6.1.4.6 9.2 15.1.2.4v60.1h-2.8v-59l-8.5-14-34.3-5.8zM.8 145.4l206.3 23.8h83.6l4.9-2.6.2-.1h14.7v3.4h-14l-4.9 2.6-.3.1h-84.4L.6 148.8zm308.6 95.9h-20.9v16.9l20.4-11.4 1.2 3.1-22.4 12.5-1.9 1.1v-25.6h23.6zm-22.8 24.3h2.9v17.7h-2.9zm15.7 0h2.9v17.8h-2.9zm-41.5-20.3h2.9v37.3h-2.9z"/><path class="st1" d="M309.8 216.8l-37.3-1-.1 67h-2.9l.1-68.7.1-1.8 1.4.1 38.8 1z"/><path class="st3" d="M226.9 216.4h22.6v11.5h-22.6z"/><path class="st4" d="M231.5 225.4h-1.3v-5.2H228v-.9h5.7v.9h-2.2v5.2zm3.7 0v-6.2h2.8c.2 0 .3 0 .5.1.1 0 .3.1.4.1.4.1.7.2 1 .4.3.2.5.4.7.6.2.2.3.5.4.8.1.3.1.6.1 1 0 .3 0 .6-.1.9-.1.3-.2.6-.4.8-.2.2-.4.5-.6.6-.3.2-.6.3-.9.5-.3.1-.6.2-1 .2s-.8.1-1.3.1h-1.6v.1zm1.7-.9c.7 0 1.3-.1 1.7-.3.4-.2.6-.4.8-.7.2-.3.3-.7.3-1.2 0-.3 0-.5-.1-.7-.1-.2-.2-.4-.3-.5-.1-.2-.3-.3-.4-.4l-.6-.3c-.2-.1-.4-.1-.7-.1h-1.4v4.3h.7v-.1zm6 .9v-6.2h1.3v2.8l2.6-2.8h1.6l-2.9 3.1 3.1 3.1H247l-2.8-2.8v2.8h-1.3z"/><path class="st5" d="M231.3 225.1H230v-5.2h-2.2v-.9h5.7v.9h-2.2v5.2zm3.6 0V219h2.8c.2 0 .3 0 .5.1.1 0 .3.1.4.1.4.1.7.2 1 .4.3.2.5.4.7.6.2.2.3.5.4.8.1.3.1.6.1 1 0 .3 0 .6-.1.9-.1.3-.2.6-.4.8-.2.2-.4.5-.6.6-.3.2-.6.3-.9.5-.3.1-.6.2-1 .2s-.8.1-1.3.1h-1.6zm1.8-.9c.7 0 1.3-.1 1.7-.3.4-.2.6-.4.8-.7.2-.3.3-.7.3-1.2 0-.3 0-.5-.1-.7-.1-.2-.2-.4-.3-.5-.1-.2-.3-.3-.4-.4l-.6-.3c-.2-.1-.4-.1-.7-.1H236v4.3h.7v-.1zm5.9.9V219h1.3v2.8l2.6-2.8h1.6l-2.9 3.1 3.1 3.1h-1.6l-2.8-2.8v2.8h-1.3z"/><path class="st5" d="M225.4 213h26.9v18.3H224V213h1.4zm24.1 3.4h-22.6V228h22.6v-11.6z"/><path class="st4" d="M122 126.8l.8.3c-.1.5-.3.9-.6 1.1-.3.2-.6.4-1 .4-.5 0-.9-.2-1.3-.6-.3-.4-.5-1-.5-1.7 0-.8.2-1.3.5-1.8.3-.4.8-.6 1.3-.6s.9.2 1.1.5c.2.2.3.5.4.8l-.8.2c0-.2-.1-.4-.3-.6-.1-.1-.3-.2-.5-.2-.3 0-.5.1-.7.4-.2.2-.3.6-.3 1.2s.1 1 .3 1.2c.2.2.4.4.7.4.2 0 .4-.1.5-.2.2-.3.3-.5.4-.8zm2-.7l-.7-.1c.1-.3.2-.6.4-.7.2-.2.5-.2.8-.2.3 0 .6 0 .7.1.2.1.3.2.3.4.1.1.1.4.1.8v1.6c0 .1.1.3.1.4h-.7c0-.1 0-.1-.1-.3v-.1c-.1.1-.3.3-.4.3-.1.1-.3.1-.5.1-.3 0-.5-.1-.7-.3-.2-.2-.2-.4-.2-.7 0-.2 0-.4.1-.5.1-.1.2-.3.3-.3.1-.1.3-.1.6-.2s.6-.1.7-.2v-.1c0-.2 0-.3-.1-.4-.1-.1-.2-.1-.4-.1-.1 0-.2 0-.3.1.1.2 0 .3 0 .4zm1 .8c-.1 0-.2.1-.4.1-.2.1-.3.1-.4.2-.1.1-.1.2-.1.3 0 .1 0 .2.1.3.1.1.2.1.3.1.1 0 .3-.1.4-.2.1-.1.1-.2.2-.3v-.5h-.1zm1.6-1.8h2.5v3.3h-.7v-2.6h-1v1.5c0 .4 0 .6-.1.8-.1.2-.2.3-.2.3-.1 0-.2.1-.4.1-.1 0-.3 0-.5-.1v-.6h.3c.1 0 .2 0 .2-.1v-2.6h-.1zm3 1.6c0-.3.1-.6.2-.8.1-.3.3-.5.5-.6.2-.1.5-.2.7-.2.4 0 .8.2 1 .5.3.3.4.7.4 1.2s-.1.9-.4 1.2c-.3.3-.6.5-1 .5-.3 0-.5-.1-.7-.2-.2-.1-.4-.3-.5-.6-.1-.3-.2-.6-.2-1zm.8.1c0 .3.1.6.2.8.1.2.3.3.5.3s.4-.1.5-.3c.1-.2.2-.4.2-.8 0-.3-.1-.6-.2-.7-.1-.2-.3-.3-.5-.3s-.4.1-.5.3c-.2.1-.2.4-.2.7zm2.6-1.7h.7v1.2h1.1v-1.2h.7v3.3h-.7V127h-1.1v1.4h-.7v-3.3zm-24.1 5.9h.8v1.9c.2 0 .3-.1.4-.2.1-.1.2-.3.3-.7.2-.5.3-.8.5-.9.2-.1.4-.2.8-.2h.1v.7h-.1c-.2 0-.3 0-.3.1-.1 0-.1.1-.2.2 0 .1-.1.3-.2.6 0 .2-.1.3-.2.4l-.3.3c.2.1.3.2.4.4.1.2.2.4.4.7l.5 1.2h-.9l-.5-1.2v-.1s0-.1-.1-.2l-.2-.4c-.1-.1-.2-.1-.3-.1v2h-.8V131h-.1zm4.9 3.5l.7.1c-.1.3-.2.6-.4.7-.2.2-.5.3-.8.3-.5 0-.8-.2-1.1-.6-.2-.3-.3-.7-.3-1.1 0-.5.1-1 .4-1.3.2-.3.5-.5.9-.5s.7.2 1 .5c.2.3.4.8.3 1.5h-1.8c0 .3.1.5.2.6.1.1.3.2.4.2.1 0 .2 0 .3-.1.1 0 .1-.1.2-.3zm0-.9c0-.3-.1-.4-.2-.6-.1-.1-.2-.2-.4-.2s-.3.1-.4.2c-.1.1-.2.3-.2.6h1.2zm1.3-1.4h.7v.5c.1-.2.2-.3.4-.4.2-.1.3-.2.5-.2.3 0 .6.2.8.5.2.3.3.7.3 1.3 0 .6-.1 1-.3 1.3-.2.3-.5.5-.8.5-.2 0-.3 0-.4-.1-.1-.1-.3-.2-.4-.4v1.7h-.7v-4.7h-.1zm.7 1.6c0 .4.1.6.2.8.1.2.3.3.5.3s.3-.1.4-.2c.1-.2.2-.4.2-.8 0-.3-.1-.6-.2-.8-.1-.2-.3-.3-.4-.3-.2 0-.3.1-.4.2-.2.3-.3.5-.3.8zm3.2-.5l-.7-.1c.1-.3.2-.6.4-.7.2-.2.5-.2.8-.2.3 0 .6 0 .7.1.2.1.3.2.3.4.1.1.1.4.1.8v1.6c0 .1.1.3.1.4h-.7c0-.1 0-.1-.1-.3v-.1c-.1.1-.3.3-.4.3-.1.1-.3.1-.5.1-.3 0-.5-.1-.7-.3-.2-.2-.2-.4-.2-.7 0-.2 0-.4.1-.5.1-.1.2-.3.3-.3.1-.1.3-.1.6-.2s.6-.1.7-.2v-.1c0-.2 0-.3-.1-.4-.1-.1-.2-.1-.4-.1-.1 0-.2 0-.3.1.1.1 0 .2 0 .4zm1 .7c-.1 0-.2.1-.4.1-.2.1-.3.1-.4.2-.1.1-.1.2-.1.3 0 .1 0 .2.1.3.1.1.2.1.3.1.1 0 .3-.1.4-.2.1-.1.1-.2.2-.3v-.5h-.1zm1.4-1.8h.9l.7 2.3.7-2.3h.9v3.3h-.6v-2.2l-.7 2.2h-.6l-.6-2.2v2.2h-.6v-3.3h-.1zm4 0h.7v2.1l1.1-2.1h.7v3.3h-.7v-2.1l-1.2 2.1h-.7v-3.3h.1zm3.2 0h.7v1.2c0 .1.1.2.2.2.1.1.2.1.3.1.1 0 .3 0 .4-.1v-1.4h.7v3.3h-.7v-1.3c-.3.1-.5.1-.7.1-.2 0-.4-.1-.6-.2-.2-.1-.3-.3-.4-.4-.1-.2-.1-.4-.1-.7v-.8h.2zm4.8 2.3l.7.1c-.1.3-.2.6-.4.7-.2.2-.5.3-.8.3-.5 0-.8-.2-1.1-.6-.2-.3-.3-.7-.3-1.1 0-.5.1-1 .4-1.3.2-.3.5-.5.9-.5s.7.2 1 .5c.2.3.4.8.3 1.5h-1.8c0 .3.1.5.2.6.1.1.3.2.4.2.1 0 .2 0 .3-.1.1 0 .2-.1.2-.3zm.1-.9c0-.3-.1-.4-.2-.6-.1-.1-.2-.2-.4-.2s-.3.1-.4.2c-.1.1-.2.3-.2.6h1.2zm3.7-.4l-.7.2c0-.2-.1-.3-.2-.4-.1-.1-.2-.1-.3-.1-.2 0-.3.1-.4.2-.1.2-.2.4-.2.8s.1.7.2.8c.1.2.3.2.4.2.1 0 .3 0 .3-.1.1-.1.2-.3.2-.5l.7.1c-.1.4-.2.7-.4.9-.2.2-.5.3-.9.3s-.7-.2-1-.5c-.2-.3-.4-.7-.4-1.3 0-.5.1-1 .4-1.3.2-.3.6-.5 1-.5.3 0 .6.1.8.3.2.3.4.6.5.9zm.5-1h.7v1.3c.1 0 .2-.1.3-.1.1-.1.1-.2.2-.5s.2-.5.3-.6c.1-.1.3-.1.4-.1h.3v.6c-.2 0-.3 0-.4.1-.1 0-.1.2-.2.4-.1.3-.2.5-.4.6.2.1.4.3.6.7v.1l.4.9h-.8l-.4-1c-.1-.2-.1-.3-.2-.4-.1-.1-.1-.1-.2-.1v1.4h-.7v-3.3h.1zm2.5 1.6c0-.3.1-.6.2-.8.1-.3.3-.5.5-.6.2-.1.5-.2.7-.2.4 0 .8.2 1 .5.3.3.4.7.4 1.2s-.1.9-.4 1.2c-.3.3-.6.5-1 .5-.3 0-.5-.1-.7-.2-.2-.1-.4-.3-.5-.6-.2-.2-.2-.6-.2-1zm.7.1c0 .3.1.6.2.8.1.2.3.3.5.3s.4-.1.5-.3c.1-.2.2-.4.2-.8 0-.3-.1-.6-.2-.7-.1-.2-.3-.3-.5-.3s-.4.1-.5.3c-.1.1-.2.4-.2.7zm2.7-1.7h.7v2.1l1.1-2.1h.7v3.3h-.7v-2.1l-1.2 2.1h-.7v-3.3h.1zm1.8-1.3h.4c0 .3-.1.5-.3.7-.1.2-.3.2-.6.2-.2 0-.4-.1-.6-.2-.1-.2-.2-.4-.3-.7h.4c0 .1.1.3.1.3.1.1.2.1.3.1.1 0 .3 0 .3-.1.2 0 .2-.1.3-.3zm-26.8 8.4h2.5v3.3h-.7V140h-1v2.6h-.7v-3.3h-.1zm3.4 0h2.5v3.3h-.7V140h-1v1.5c0 .4 0 .6-.1.8-.1.2-.2.3-.2.3-.1 0-.2.1-.4.1-.1 0-.3 0-.5-.1v-.6h.3c.1 0 .2 0 .2-.1v-2.6h-.1zm3.2 0h.7v2.1l1.1-2.1h.7v3.3h-.7v-2.1l-1.2 2.1h-.7v-3.3h.1zm3 0h2.5v.7h-.9v2.6h-.7V140h-.9v-.7zm3 0h.7v1.3c.1 0 .2-.1.3-.1.1-.1.1-.2.2-.5s.2-.5.3-.6c.1-.1.3-.1.4-.1h.3v.6c-.2 0-.3 0-.4.1-.1 0-.1.2-.2.4-.1.3-.2.5-.4.6.2.1.4.3.6.7v.1l.4.9h-.8l-.4-1c-.1-.2-.1-.3-.2-.4-.1-.1-.1-.1-.2-.1v1.4h-.7v-3.3h.1zm2.7 0h.7v2.1l1.1-2.1h.7v3.3h-.7v-2.1l-1.2 2.1h-.7v-3.3z"/><path class="st6" d="M109.4 143.5l-1 9.3 37.4 3.8 1.4-15.8-7.2-.8-.5 5.7z"/><path class="st3" d="M263.9 209.9l-13.3-105.1 5.9-.3 13.1 105.4v51h40.3v4.7h-40.3v17.6h-5.7z"/><path class="st7" d="M1 150.2l.2 8.2 205.3 24.7 103-1.2v-8.7l-103 .6zm0 31.7l.2 8.2 215.6 21.7 92.7 1.8v-8.7l-93.6-2.4z"/><path class="st4" d="M51.4 173.3h4.1v5.8h.5v2.7h-1v-1.5h-3.7v1.5h-1v-2.7h.5c.2-.6.4-1.3.5-2.1.1-.8.1-1.8.1-3v-.7zm1.2 1.2c0 2.1-.2 3.7-.5 4.6h2.2v-4.6h-1.7zm4.2.8h2.5c.5 0 .9.1 1.1.3.3.2.4.6.4 1 0 .3-.1.5-.2.7-.1.2-.3.3-.5.4.3.1.5.2.7.5.1.2.2.5.2.8 0 .4-.1.7-.4 1-.2.2-.6.4-1.1.4h-2.7v-5.1zm1.1 2.1h.7c.4 0 .6-.1.8-.2.2-.1.2-.3.2-.5s-.1-.4-.2-.5c-.1-.1-.4-.1-.8-.1h-.7v1.3zm0 2.1h.9c.3 0 .6 0 .7-.1.1-.1.2-.3.2-.5s-.1-.4-.3-.5c-.2-.1-.5-.1-1-.1h-.6v1.2h.1zm3.6-1.8c0-.4.1-.9.3-1.3.2-.4.4-.7.8-1 .3-.2.7-.3 1.1-.3.6 0 1.2.2 1.6.7.4.5.6 1.1.6 1.9 0 .8-.2 1.4-.6 1.9-.4.5-.9.8-1.6.8-.4 0-.8-.1-1.1-.3-.4-.2-.6-.5-.8-.9-.2-.4-.3-.9-.3-1.5zm1.1.1c0 .5.1.9.3 1.2.2.3.4.4.7.4.3 0 .5-.1.7-.4.2-.3.3-.7.3-1.2s-.1-.9-.3-1.1c-.2-.3-.4-.4-.7-.4-.3 0-.5.1-.7.4-.2.2-.3.6-.3 1.1zm4.1-2.5h1.1v.7c.1-.3.3-.5.6-.6.2-.2.5-.2.8-.2.5 0 .9.2 1.3.7.3.5.5 1.1.5 1.9 0 .8-.2 1.5-.5 2s-.8.7-1.3.7c-.2 0-.5-.1-.6-.2-.2-.1-.4-.3-.6-.6v2.5h-1.1v-6.9h-.2zm1.2 2.4c0 .6.1 1 .3 1.3.2.3.4.4.7.4.3 0 .5-.1.7-.4.2-.3.3-.7.3-1.2s-.1-.9-.3-1.2c-.2-.3-.4-.4-.7-.4-.3 0-.5.1-.7.4-.3.2-.3.6-.3 1.1zm6.4 1l1.1.2c-.1.5-.4.9-.7 1.1-.3.3-.7.4-1.2.4-.7 0-1.3-.3-1.6-.9-.3-.5-.4-1-.4-1.7 0-.8.2-1.5.6-2 .4-.5.8-.7 1.4-.7.6 0 1.1.2 1.5.7.4.5.5 1.3.5 2.3h-2.8c0 .4.1.7.3.9.2.2.4.3.6.3.2 0 .3-.1.4-.2.1.1.2-.1.3-.4zm0-1.3c0-.4-.1-.7-.3-.9-.2-.2-.4-.3-.6-.3-.2 0-.4.1-.6.3-.2.2-.2.5-.2.9h1.7zm2-2.1h1.1v4H79v-4h1.1v4h.4v2.4h-.9v-1.3h-3.4v-5.1h.1zm11.2 2.5l1.2.4c-.2.8-.5 1.3-.9 1.7-.4.4-.9.6-1.6.6-.8 0-1.4-.3-1.9-1-.5-.6-.8-1.5-.8-2.6 0-1.2.3-2.1.8-2.7.5-.6 1.2-1 2-1 .7 0 1.3.3 1.8.8.3.3.5.7.6 1.3l-1.2.3c-.1-.4-.2-.6-.4-.9-.2-.2-.5-.3-.8-.3-.4 0-.8.2-1.1.6-.3.4-.4 1-.4 1.8 0 .9.1 1.5.4 1.9.3.4.6.6 1 .6.3 0 .6-.1.8-.4.2-.3.4-.6.5-1.1zm2.1-2.5h3.8v5.1h-1.1v-4h-1.5v4h-1.1v-5.1h-.1zm4.8 2.4c0-.4.1-.9.3-1.3.2-.4.4-.7.8-1 .3-.2.7-.3 1.1-.3.6 0 1.2.2 1.6.7.4.5.6 1.1.6 1.9 0 .8-.2 1.4-.6 1.9-.4.5-.9.8-1.6.8-.4 0-.8-.1-1.1-.3-.4-.2-.6-.5-.8-.9-.2-.4-.3-.9-.3-1.5zm1.1.1c0 .5.1.9.3 1.2.2.3.4.4.7.4.3 0 .5-.1.7-.4.2-.3.3-.7.3-1.2s-.1-.9-.3-1.1c-.2-.3-.4-.4-.7-.4-.3 0-.5.1-.7.4-.2.2-.3.6-.3 1.1zm4.1-2.5h1.1v.7c.1-.3.3-.5.6-.6.2-.2.5-.2.8-.2.5 0 .9.2 1.3.7.3.5.5 1.1.5 1.9 0 .8-.2 1.5-.5 2s-.8.7-1.3.7c-.2 0-.5-.1-.6-.2-.2-.1-.4-.3-.6-.6v2.5h-1.1v-6.9h-.2zm1.2 2.4c0 .6.1 1 .3 1.3.2.3.4.4.7.4.3 0 .5-.1.7-.4.2-.3.3-.7.3-1.2s-.1-.9-.3-1.2c-.2-.3-.4-.4-.7-.4-.3 0-.5.1-.7.4-.2.2-.3.6-.3 1.1zm3.3-2.4h3.9v1.1h-1.4v4h-1.1v-4h-1.4v-1.1zm5.4 1.5l-1-.2c.1-.5.3-.9.6-1.1.3-.2.7-.4 1.3-.4.5 0 .9.1 1.1.2.2.1.4.3.5.5.1.2.2.6.2 1.2v1.6c0 .4 0 .8.1 1 0 .2.1.4.2.7h-1.1c0-.1-.1-.2-.1-.4v-.2c-.2.2-.4.4-.6.5-.2.1-.5.2-.7.2-.4 0-.8-.1-1-.4-.3-.3-.4-.6-.4-1.1 0-.3.1-.5.2-.8.1-.2.3-.4.5-.5.2-.1.5-.2.9-.3.5-.1.9-.2 1.1-.3v-.1c0-.3-.1-.4-.2-.6-.1-.1-.3-.2-.6-.2-.2 0-.4 0-.5.1-.4.2-.5.4-.5.6zm1.5 1.1c-.1.1-.4.1-.7.2-.3.1-.5.2-.6.2-.1.1-.2.3-.2.5s.1.3.2.5c.1.1.3.2.5.2s.4-.1.6-.2c.1-.1.2-.3.3-.4v-1z"/><ellipse class="st3" cx="42" cy="175.4" rx="6.7" ry="7.9"/><path class="st4" d="M42 166.7c2 0 3.8 1 5.2 2.5 1.3 1.6 2.1 3.7 2.1 6.1 0 2.4-.8 4.5-2.1 6.1C45.8 183 44 184 42 184s-3.8-1-5.2-2.5c-1.3-1.6-2.1-3.7-2.1-6.1 0-2.4.8-4.5 2.1-6.1 1.3-1.6 3.2-2.6 5.2-2.6zm4.3 3.5c-1.1-1.3-2.6-2.1-4.3-2.1-1.7 0-3.2.8-4.3 2.1-1.1 1.3-1.8 3.1-1.8 5.1 0 2 .7 3.8 1.8 5.1 1.1 1.3 2.6 2.1 4.3 2.1 1.7 0 3.2-.8 4.3-2.1 1.1-1.3 1.8-3.1 1.8-5.1 0-2-.7-3.8-1.8-5.1z"/><path class="st5" d="M38.2 180.2h2v-2.8l-.1-2h.1l1.1 3.4h1.4l1.1-3.4-.1 2v2.8h2.1v-9.7h-2.1l-1.7 4.7-1.8-4.7h-2z"/><path class="st3" d="M90.4 209.4h6v6.3h-6zm-73.1-8.6L.6 197.4l-.1 5.4 11.4 2.4v6.5l-10.7-.5v2.2l35.8 1.9V213l-5.4-.3v-7.2h-2v7.1l-12.3-.6z"/><path class="st3" d="M34.6 208.6h7.3v2.5h-7.3zm59.6-10.7h4.4v3.4h3.1v2.2h-7.5v-2.2z"/><path class="st1" d="M11.7 192.1l20.7 1.9-.2 3.4-20.7-1.8zm13.8-30.8l-1.6 22.8-2.9-.2 1.6-22.9z"/><ellipse class="st3" cx="20.8" cy="191.5" rx="4.9" ry="5.8"/><path class="st4" d="M20.8 185.2c1.5 0 2.8.7 3.7 1.8 1 1.1 1.5 2.7 1.5 4.4s-.6 3.3-1.5 4.4c-1 1.1-2.3 1.8-3.7 1.8s-2.8-.6-3.8-1.7-1.5-2.7-1.5-4.4c0-1.7.6-3.3 1.5-4.4 1-1.2 2.3-1.9 3.8-1.9zm3.1 2.6c-.8-1-1.9-1.5-3.1-1.5-1.2 0-2.3.6-3.1 1.5-.8 1-1.3 2.3-1.3 3.7 0 1.5.5 2.8 1.3 3.7.8 1 1.9 1.5 3.1 1.5 1.2 0 2.3-.6 3.1-1.5.8-1 1.3-2.3 1.3-3.7 0-1.5-.5-2.8-1.3-3.7z"/><path class="st5" d="M18 195h1.5v-2l-.1-1.5h.1l.7 2.4h1.1l.8-2.4-.1 1.5v2h1.5v-7H22l-1.2 3.4-1.3-3.4H18z"/><path class="st1" d="M126.1 173.4l-1.4 20.3-2.9-.2 1.4-20.4zm-14.9 33.1l22.3.7v3.5l-22.3-.8z"/><ellipse class="st3" cx="116.7" cy="205.1" rx="4.9" ry="5.8"/><path class="st4" d="M116.7 198.8c1.5 0 2.8.7 3.7 1.8 1 1.1 1.5 2.7 1.5 4.4 0 1.7-.6 3.3-1.5 4.4-1 1.1-2.3 1.8-3.7 1.8-1.5 0-2.8-.7-3.7-1.8-1-1.1-1.5-2.7-1.5-4.4 0-1.7.6-3.3 1.5-4.4.9-1.1 2.2-1.8 3.7-1.8zm3.1 2.5c-.8-1-1.9-1.5-3.1-1.5-1.2 0-2.3.6-3.1 1.5-.8 1-1.3 2.3-1.3 3.7 0 1.5.5 2.8 1.3 3.7.8 1 1.9 1.5 3.1 1.5 1.2 0 2.3-.6 3.1-1.5.8-1 1.3-2.3 1.3-3.7 0-1.4-.5-2.7-1.3-3.7z"/><path class="st5" d="M113.9 208.6h1.5v-2l-.1-1.5.8 2.4h1.1l.7-2.4h.1l-.1 1.5v2h1.5v-7h-1.5l-1.3 3.4-1.2-3.4h-1.5z"/><ellipse class="st3" cx="26.4" cy="156.1" rx="4.9" ry="5.8"/><path class="st4" d="M26.4 149.8c1.5 0 2.8.7 3.7 1.8 1 1.1 1.5 2.7 1.5 4.4 0 1.7-.6 3.3-1.5 4.4-1 1.1-2.3 1.8-3.7 1.8-1.5 0-2.8-.7-3.7-1.8-1-1.1-1.5-2.7-1.5-4.4 0-1.7.6-3.3 1.5-4.4.9-1.1 2.2-1.8 3.7-1.8zm3.1 2.5c-.8-1-1.9-1.5-3.1-1.5-1.2 0-2.3.6-3.1 1.5-.8 1-1.3 2.3-1.3 3.7 0 1.5.5 2.8 1.3 3.7.8 1 1.9 1.5 3.1 1.5 1.2 0 2.3-.6 3.1-1.5.8-1 1.3-2.3 1.3-3.7 0-1.4-.5-2.7-1.3-3.7z"/><path class="st5" d="M23.6 159.6h1.5v-2l-.1-1.5.8 2.4h1.1l.8-2.4-.1 1.5v2h1.5v-7h-1.5l-1.2 3.4-1.3-3.4h-1.5z"/><ellipse class="st3" cx="121.6" cy="165.8" rx="4.9" ry="5.8"/><path class="st4" d="M121.6 159.6c1.5 0 2.8.7 3.7 1.8 1 1.1 1.5 2.7 1.5 4.4 0 1.7-.6 3.3-1.5 4.4-1 1.1-2.3 1.8-3.7 1.8-1.5 0-2.8-.7-3.7-1.8-1-1.1-1.5-2.7-1.5-4.4 0-1.7.6-3.3 1.5-4.4.9-1.1 2.3-1.8 3.7-1.8zm3.2 2.5c-.8-1-1.9-1.5-3.1-1.5s-2.3.6-3.1 1.5c-.8 1-1.3 2.3-1.3 3.7 0 1.5.5 2.8 1.3 3.7.8 1 1.9 1.5 3.1 1.5 1.2 0 2.3-.6 3.1-1.5.8-1 1.3-2.3 1.3-3.7 0-1.4-.5-2.8-1.3-3.7z"/><path class="st5" d="M118.9 169.3h1.5v-2l-.1-1.4.8 2.4h1l.8-2.4h.1l-.1 1.4v2h1.5v-7h-1.5l-1.3 3.4-1.2-3.4h-1.5z"/><path class="st4" d="M137.3 173.2l.4-5.9 1.5.1.6 4.1 1.2-4 1.5.1-.4 5.9-.9-.1.3-4.7-1.3 4.6-1-.1-.7-4.8-.3 4.7-.9.1zm5.7-1.6c0-.4.1-.7.3-1.1.2-.3.4-.6.7-.7.3-.2.6-.2 1-.2.6.1 1 .3 1.3.8.3.5.5 1 .4 1.7 0 .7-.3 1.2-.6 1.6-.4.4-.8.6-1.4.5-.3 0-.6-.2-.9-.4-.3-.2-.5-.5-.6-.9-.1-.4-.2-.8-.2-1.3zm1 .1c0 .4 0 .8.2 1 .2.2.4.4.6.4.2 0 .5-.1.7-.3.2-.2.3-.5.3-1 0-.4 0-.8-.2-1-.2-.2-.4-.4-.6-.4-.3 0-.5.1-.7.3-.1.3-.2.6-.3 1zm6.7-.2l-1 .1c0-.2-.1-.4-.2-.5-.1-.1-.2-.2-.4-.2s-.4.1-.6.2c-.2.2-.3.5-.3 1s0 .9.1 1.1c.1.2.3.3.6.4.2 0 .3 0 .5-.1.1-.1.2-.3.3-.6l.9.3c-.1.5-.3.9-.6 1.1-.3.2-.7.3-1.1.3-.5-.1-.9-.3-1.2-.7-.3-.4-.4-1-.4-1.7s.2-1.2.6-1.6c.3-.4.8-.5 1.3-.5.4 0 .8.2 1 .4.2.2.4.5.5 1zm.8-1.2l1 .1-.1 1.8c.2 0 .3-.1.4-.1.1-.1.2-.3.3-.6.2-.4.3-.7.5-.8.2-.1.3-.1.6-.1.1 0 .2 0 .4.1v.7h-.5c-.1.1-.2.2-.3.5-.1.4-.3.6-.5.7.3.1.5.5.7 1v.1l.5 1.2-1-.1-.4-1.3c-.1-.3-.2-.4-.2-.5-.1-.1-.2-.1-.3-.1l-.1 1.8-1-.1v-4.3zm3 2.4c0-.4.1-.7.3-1.1.2-.3.4-.6.7-.7.3-.2.6-.2 1-.2.5.1 1 .3 1.3.8.3.5.5 1 .4 1.7 0 .7-.3 1.2-.6 1.6-.4.4-.8.6-1.4.5-.3 0-.6-.2-.9-.4-.3-.2-.5-.5-.6-.9-.2-.4-.2-.8-.2-1.3zm1 .2c0 .4 0 .8.2 1 .2.2.4.4.6.4.2 0 .5-.1.7-.3.2-.2.3-.5.3-1 0-.4 0-.8-.2-1-.2-.2-.4-.4-.6-.4-.3 0-.5.1-.7.3-.1.2-.3.6-.3 1zm3.7-1.8l2.1.2c.4 0 .7.2.9.4.2.2.3.5.3.9 0 .2-.1.4-.2.6-.1.2-.3.3-.5.3.2.1.4.3.5.5.1.2.2.4.1.7 0 .3-.1.6-.4.8-.2.2-.5.3-.9.2l-2.3-.2.4-4.4zm.8 1.8l.6.1c.3 0 .5 0 .7-.1.1-.1.2-.2.2-.4s0-.3-.2-.4c-.1-.1-.3-.1-.7-.2l-.6-.1v1.1zm-.1 1.8l.8.1c.3 0 .5 0 .6-.1.1-.1.2-.2.2-.4s0-.4-.2-.5c-.1-.1-.4-.2-.8-.2h-.5l-.1 1.1zm6.5-1.6l-1 .1c0-.2-.1-.4-.2-.5-.1-.1-.2-.2-.4-.2s-.4.1-.6.2c-.2.2-.3.5-.3 1s0 .9.1 1.1c.1.2.3.3.6.4.2 0 .3 0 .5-.1.1-.1.2-.3.3-.6l.9.3c-.1.5-.3.9-.6 1.1-.3.2-.7.3-1.1.3-.5-.1-.9-.3-1.2-.7-.3-.4-.4-1-.4-1.7s.2-1.2.6-1.6c.3-.4.8-.5 1.3-.5.4 0 .8.2 1 .4.2.1.4.5.5 1zm.8-1.2l1 .1-.1 1.8 1 .1c.4 0 .7.1.9.2.2.1.4.2.5.5.1.2.2.5.1.8 0 .4-.2.7-.4.9-.3.2-.6.3-1.1.2l-2.1-.2.2-4.4zm.7 3.6l.9.1c.3 0 .5 0 .6-.1.1-.1.1-.2.1-.4s0-.4-.2-.4c-.1-.1-.4-.2-.7-.2l-.6-.1-.1 1.1zm3.6-3.2l1 .1-.1 1.8c.2 0 .3-.1.4-.1.1-.1.2-.3.3-.6.2-.4.3-.7.5-.8.2-.1.3-.1.6-.1.1 0 .2 0 .4.1v.7h-.5c-.1.1-.2.2-.3.5-.1.4-.3.6-.5.7.3.1.5.5.7 1v.1l.5 1.2-1-.1-.4-1.3c-.1-.3-.2-.4-.2-.5-.1-.1-.2-.1-.3-.1l-.1 1.8-1-.1v-4.3zm3.5.3l.9.1-.2 2.7 1.7-2.6.9.1-.3 4.3-.9-.1.2-2.7-1.7 2.6-.9-.1.3-4.3zm4.3.4l.9.1-.2 2.7 1.7-2.6.9.1-.3 4.3-.9-.1.2-2.7-1.7 2.6-.9-.1.3-4.3zm2.4-1.5h.5c-.1.4-.2.6-.4.8-.2.2-.5.3-.8.2-.3 0-.5-.2-.7-.4-.2-.2-.3-.5-.3-.9h.5c0 .2 0 .3.1.5.1.1.2.2.4.2s.3 0 .4-.1c.2.1.3-.1.3-.3zm3.8 2.2l3.2.3-.3 4.3-1-.1.2-3.4-1.3-.1-.2 3.4-1-.1.4-4.3zm4.3.4l.9.1v.6c.1-.2.3-.4.5-.5.2-.1.4-.2.7-.1.4 0 .8.3 1 .7.3.4.4 1 .3 1.7-.1.7-.2 1.3-.6 1.6-.3.4-.7.5-1.1.5-.2 0-.4-.1-.5-.2-.2-.1-.3-.3-.5-.5l-.2 2.2-1-.1.5-6zm.8 2.2c0 .5 0 .9.2 1.1.1.2.3.4.6.4.2 0 .4-.1.6-.3.2-.2.3-.5.3-1s0-.8-.2-1c-.1-.2-.3-.4-.5-.4s-.4.1-.6.3c-.3.1-.4.4-.4.9zm3.1.3c0-.4.1-.7.3-1.1.2-.3.4-.6.7-.7.3-.2.6-.2 1-.2.5.1 1 .3 1.3.8.3.5.5 1 .4 1.7 0 .7-.3 1.2-.6 1.6-.4.4-.8.6-1.4.5-.3 0-.6-.2-.9-.4-.3-.2-.5-.5-.6-.9-.2-.4-.2-.8-.2-1.3zm1 .1c0 .4 0 .8.2 1 .2.2.4.4.6.4.2 0 .5-.1.7-.3.2-.2.3-.5.3-1 0-.4 0-.8-.2-1-.2-.2-.4-.4-.6-.4-.3 0-.5.1-.7.3-.2.3-.3.6-.3 1zm6.6-.2l-1 .1c0-.2-.1-.4-.2-.5-.1-.1-.2-.2-.4-.2s-.4.1-.6.2c-.2.2-.3.5-.3 1s0 .9.1 1.1c.1.2.3.3.6.4.2 0 .3 0 .5-.1.1-.1.2-.3.3-.6l.9.3c-.1.5-.3.9-.6 1.1-.3.2-.7.3-1.1.3-.5-.1-.9-.3-1.2-.7-.3-.4-.4-1-.4-1.7s.2-1.2.6-1.6c.3-.4.8-.5 1.3-.5.4 0 .8.2 1 .4.3.2.4.5.5 1zm.8-1.2l3.2.3-.3 4.3-1-.1.2-3.4-1.3-.1-.2 3.4-1-.1.4-4.3zm6.2 3.6l.9.3c-.2.4-.4.7-.6.9-.3.2-.6.3-1 .2-.6-.1-1.1-.4-1.3-.9-.2-.4-.3-.9-.3-1.5.1-.7.2-1.3.6-1.6.3-.4.8-.5 1.2-.5.5.1.9.3 1.2.8.3.5.4 1.1.3 2l-2.4-.2c0 .3 0 .6.2.8.1.2.3.3.5.3s.3 0 .4-.1c.1-.2.2-.3.3-.5zm.1-1.2c0-.3 0-.6-.2-.8-.1-.2-.3-.3-.5-.3s-.4.1-.5.2c-.1.2-.2.4-.3.7l1.5.2zm1.8-1.6l1 .1-.1 1.8c.2 0 .3-.1.4-.1.1-.1.2-.3.3-.6.2-.4.3-.7.5-.8.2-.1.3-.1.6-.1.1 0 .2 0 .4.1v.8h-.5c-.1.1-.2.2-.3.5-.1.4-.3.6-.5.7.3.1.5.5.7 1v.1l.5 1.2-1-.1-.4-1.3c-.1-.3-.2-.4-.2-.5-.1-.1-.2-.1-.3-.1l-.1 1.8-1-.1v-4.4zm3.1.3l3.3.3-.1.9-1.2-.1-.2 3.4-1-.1.2-3.4-1.2-.1.2-.9zm-78.7 25.1l.4-5.9 1.5.1.6 4.1 1.2-4 1.5.1-.4 5.9-.9-.1.3-4.7-1.3 4.6-1-.1-.7-4.8-.3 4.7-.9.1zm5.8-1.7c0-.4.1-.7.3-1.1.2-.3.4-.6.7-.7.3-.2.6-.2 1-.2.5.1 1 .3 1.3.8.3.5.5 1 .4 1.7 0 .7-.3 1.2-.6 1.6-.4.4-.8.6-1.4.5-.3 0-.6-.2-.9-.4-.3-.2-.5-.5-.6-.9-.2-.4-.3-.8-.2-1.3zm1 .2c0 .4 0 .8.2 1 .2.2.4.4.6.4.2 0 .5-.1.7-.3.2-.2.3-.5.3-1 0-.4 0-.8-.2-1-.2-.2-.4-.4-.6-.4-.3 0-.5.1-.7.3-.2.2-.3.5-.3 1zm6.6-.3l-1 .1c0-.2-.1-.4-.2-.5-.1-.1-.2-.2-.4-.2s-.4.1-.6.2c-.2.2-.2.5-.3 1 0 .5 0 .9.1 1.1.1.2.3.3.6.4.2 0 .3 0 .5-.1.1-.1.2-.3.3-.6l.9.3c-.1.5-.3.9-.6 1.1-.3.2-.7.3-1.1.3-.5-.1-.9-.3-1.2-.7-.3-.4-.4-1-.4-1.7.1-.7.2-1.2.6-1.6.3-.4.8-.5 1.3-.5.4 0 .8.2 1 .4.3.2.4.6.5 1zm.8-1.2l1 .1-.1 1.8c.2 0 .3-.1.4-.1.1-.1.2-.3.3-.6.2-.4.3-.7.5-.8.2-.1.3-.1.6-.1.1 0 .2 0 .4.1v.8h-.5c-.1.1-.2.2-.3.5-.1.4-.3.6-.5.7.3.1.5.5.7 1v.1l.5 1.2-1-.1-.4-1.3c-.1-.3-.2-.4-.2-.5-.1-.1-.2-.1-.3-.1l-.1 1.8-1-.1v-4.4zm3.1 2.4c0-.4.1-.7.3-1.1.2-.3.4-.6.7-.7s.6-.2 1-.2c.5.1 1 .3 1.3.8.3.5.5 1 .4 1.7 0 .7-.3 1.2-.6 1.6-.4.4-.8.6-1.4.5-.3 0-.6-.2-.9-.4-.3-.2-.5-.5-.6-.9-.2-.3-.3-.8-.2-1.3zm.9.2c0 .4 0 .8.2 1 .2.2.4.4.6.4.2 0 .5-.1.7-.3.2-.2.3-.5.3-1 0-.4 0-.8-.2-1-.2-.2-.4-.4-.6-.4-.3 0-.5.1-.7.3-.1.3-.2.6-.3 1zm3.7-1.8l2.1.2c.4 0 .7.2.9.4.2.2.3.5.3.9 0 .2-.1.4-.2.6-.1.2-.3.3-.5.3.2.1.4.3.5.5.1.2.2.4.1.7 0 .3-.1.6-.4.8-.2.2-.5.3-.9.2l-2.3-.2.4-4.4zm.8 1.9l.6.1c.3 0 .5 0 .7-.1.1-.1.2-.2.2-.4s0-.3-.2-.4c-.1-.1-.3-.1-.7-.2l-.6-.1v1.1zm-.1 1.8l.8.1c.3 0 .5 0 .6-.1.1-.1.2-.2.2-.4s0-.4-.2-.5c-.1-.1-.4-.2-.8-.2h-.5l-.1 1.1zm6.5-1.7l-1 .1c0-.2-.1-.4-.2-.5-.1-.1-.2-.2-.4-.2s-.4.1-.6.2c-.2.2-.2.5-.3 1 0 .5 0 .9.1 1.1.1.2.3.3.6.4.2 0 .3 0 .5-.1.1-.1.2-.3.3-.6l.9.3c-.1.5-.3.9-.6 1.1-.3.2-.7.3-1.1.3-.5-.1-.9-.3-1.2-.7-.3-.4-.4-1-.4-1.7s.2-1.2.6-1.6c.3-.4.8-.5 1.3-.5.4 0 .8.2 1 .4.3.2.4.5.5 1zm.8-1.2l1 .1-.1 1.8 1 .1c.4 0 .7.1.9.2.2.1.4.2.5.5.1.2.2.5.1.8 0 .4-.2.7-.4.9-.3.2-.6.3-1.1.2l-2.1-.2.2-4.4zm.8 3.6l.9.1c.3 0 .5 0 .6-.1.1-.1.1-.2.1-.4s0-.4-.2-.4c-.1-.1-.4-.2-.7-.2l-.6-.1-.1 1.1zm3.5-3.2l1 .1-.1 1.8c.2 0 .3-.1.4-.1.1-.1.2-.3.3-.6.2-.4.3-.7.5-.8.2-.1.3-.1.6-.1.1 0 .2 0 .4.1v.8h-.5c-.1.1-.2.2-.3.5-.1.4-.3.6-.5.7.3.1.5.5.7 1v.1l.5 1.2-1-.1-.4-1.3c-.1-.3-.2-.4-.2-.5-.1-.1-.2-.1-.3-.1l-.1 1.8-1-.1v-4.4zm3.5.3l.9.1-.2 2.7 1.7-2.6.9.1-.3 4.3-.9-.1.2-2.7-1.7 2.6-.9-.1.3-4.3zm4.3.5l.9.1-.2 2.7 1.7-2.6.9.1-.3 4.3-.9-.1.2-2.7-1.7 2.6-.9-.1.3-4.3zm2.4-1.5h.5c-.1.4-.2.6-.4.8-.2.2-.5.3-.8.2-.3 0-.5-.2-.7-.4-.2-.2-.3-.5-.3-.9h.5c0 .2 0 .3.1.5.1.1.2.2.4.2s.3 0 .4-.1c.2 0 .3-.1.3-.3zm3.8 2.1l3.2.3-.3 4.3-1-.1.2-3.4-1.3-.1-.2 3.4-1-.1.4-4.3zm4.3.4l.9.1v.6c.1-.2.3-.4.5-.5.2-.1.4-.2.7-.1.4 0 .8.3 1 .7.3.4.4 1 .3 1.7-.1.7-.2 1.3-.6 1.6-.3.4-.7.5-1.1.5-.2 0-.4-.1-.5-.2-.2-.1-.3-.3-.5-.5l-.2 2.2-1-.1.5-6zm.8 2.2c0 .5 0 .9.2 1.1.1.2.3.4.6.4.2 0 .4-.1.6-.3.2-.2.3-.5.3-1s0-.8-.2-1c-.1-.2-.3-.4-.5-.4s-.4.1-.6.3c-.3.1-.4.5-.4.9zm3.1.3c0-.4.1-.7.3-1.1.2-.3.4-.6.7-.7.3-.2.6-.2 1-.2.5.1 1 .3 1.3.8.3.5.5 1 .4 1.7 0 .7-.3 1.2-.6 1.6-.4.4-.8.6-1.4.5-.3 0-.6-.2-.9-.4-.3-.2-.5-.5-.6-.9-.2-.4-.2-.8-.2-1.3zm1 .2c0 .4 0 .8.2 1 .2.2.4.4.6.4.2 0 .5-.1.7-.3.2-.2.3-.5.3-1 0-.4 0-.8-.2-1-.2-.2-.4-.4-.6-.4-.3 0-.5.1-.7.3-.2.2-.3.5-.3 1zm6.6-.3l-1 .1c0-.2-.1-.4-.2-.5-.1-.1-.2-.2-.4-.2s-.4.1-.6.2c-.2.2-.2.5-.3 1 0 .5 0 .9.1 1.1.1.2.3.3.6.4.2 0 .3 0 .5-.1.1-.1.2-.3.3-.6l.9.3c-.1.5-.3.9-.6 1.1-.3.2-.7.3-1.1.3-.5-.1-.9-.3-1.2-.7-.3-.4-.4-1-.4-1.7.1-.7.2-1.2.6-1.6.3-.4.8-.5 1.3-.5.4 0 .8.2 1 .4.3.2.5.6.5 1zm.8-1.2l3.2.3-.3 4.3-1-.1.2-3.4-1.3-.1-.2 3.4-1-.1.4-4.3zm6.2 3.6l.9.3c-.2.4-.4.7-.6.9-.3.2-.6.3-1 .2-.6-.1-1.1-.4-1.3-.9-.2-.4-.3-.9-.3-1.5.1-.7.2-1.3.6-1.6.3-.4.8-.5 1.2-.5.5.1.9.3 1.2.8.3.5.4 1.1.3 2l-2.4-.2c0 .3 0 .6.2.8.1.2.3.3.5.3s.3 0 .4-.1c.1-.2.2-.3.3-.5zm.1-1.2c0-.3 0-.6-.2-.8-.1-.2-.3-.3-.5-.3s-.4.1-.5.2c-.1.2-.2.4-.3.7l1.5.2zm1.8-1.6l1 .1-.1 1.8c.2 0 .3-.1.4-.1.1-.1.2-.3.3-.6.2-.4.3-.7.5-.8.2-.1.3-.1.6-.1.1 0 .2 0 .4.1v.8h-.5c-.1.1-.2.2-.3.5-.1.4-.3.6-.5.7.3.1.5.5.7 1v.1l.5 1.2-1-.1-.4-1.3c-.1-.3-.2-.4-.2-.5-.1-.1-.2-.1-.3-.1l-.1 1.8-1-.1v-4.4zm3.1.3l3.3.3-.1.9-1.2-.1-.2 3.4-1-.1.2-3.4-1.2-.1.2-.9z"/><path class="st4" d="M.6 102.1h311.6v182.1H-.8V102.1H.6zm308.7 3.4H2v175.3h307.3V105.5z"/><path class="st4" d="M180.4 243.2h5.8v8.3h.7v3.8h-1.4v-2.2h-5.3v2.2h-1.4v-3.8h.7c.3-.8.6-1.8.7-3 .1-1.1.2-2.5.2-4.3v-1zm1.6 1.6c0 3-.2 5.2-.7 6.6h3.2v-6.6H182zm5.8 4.6c0-.6.1-1.2.4-1.8.3-.6.6-1 1.1-1.4.5-.3 1-.5 1.6-.5.9 0 1.7.4 2.3 1.1.6.7.9 1.6.9 2.7s-.3 2-.9 2.7c-.6.7-1.3 1.1-2.2 1.1-.6 0-1.1-.2-1.6-.4-.5-.3-.9-.7-1.2-1.3-.2-.7-.4-1.4-.4-2.2zm1.7.1c0 .7.1 1.3.4 1.6.3.4.6.6 1.1.6.4 0 .8-.2 1.1-.6.3-.4.4-.9.4-1.7 0-.7-.1-1.2-.4-1.6-.3-.4-.6-.6-1.1-.6-.4 0-.8.2-1.1.6-.3.4-.4 1-.4 1.7zm5.8-3.6h2l1.5 5 1.5-5h2v7.2h-1.4v-4.7l-1.5 4.7H198l-1.4-4.7v4.7h-1.4v-7.2h.1zm11.9 7.2v-9.9h2.5l1.5 6.8 1.5-6.8h2.6v9.9h-1.6v-7.8l-1.7 7.8h-1.6l-1.6-7.8v7.8h-1.6zm13.3-2.3l1.6.3c-.2.7-.5 1.2-1 1.6-.4.4-1 .5-1.7.5-1.1 0-1.8-.4-2.3-1.2-.4-.7-.6-1.5-.6-2.5 0-1.2.3-2.1.8-2.8.5-.7 1.2-1 2-1 .9 0 1.6.4 2.1 1.1.5.7.8 1.8.7 3.3h-4c0 .6.1 1 .4 1.3.2.3.6.5.9.5.3 0 .5-.1.6-.2.2-.3.4-.5.5-.9zm0-1.9c0-.6-.1-1-.4-1.3-.2-.3-.5-.4-.8-.4-.3 0-.6.2-.9.5-.2.3-.3.7-.3 1.2h2.4zm7.4-6h1.1c0 .6-.2 1-.4 1.3-.2.3-.8.4-1.6.4h-.5c-.5 0-.9.1-1.2.2-.3.1-.6.4-.8.8-.2.4-.3 1-.3 1.9.2-.5.5-.9.9-1.2.4-.3.8-.4 1.3-.4.8 0 1.5.4 2 1.1.6.7.8 1.6.8 2.6s-.3 1.9-.9 2.6c-.6.7-1.3 1.1-2.3 1.1-.6 0-1.2-.2-1.7-.6-.5-.4-.8-.9-1-1.5-.2-.6-.3-1.7-.3-3.2 0-1.7.3-3 .8-3.7.5-.8 1.5-1.1 2.8-1.1h.8c.3 0 .4-.1.5-.3zm-3.3 6.7c0 .7.1 1.2.4 1.6.3.4.6.6 1 .6s.8-.2 1.1-.6c.3-.4.4-.9.4-1.5s-.1-1.2-.4-1.6c-.3-.4-.6-.6-1-.6s-.7.2-1 .6c-.3.3-.5.8-.5 1.5zm9.5 1.2l1.6.3c-.2.7-.5 1.2-1 1.6-.4.4-1 .5-1.7.5-1.1 0-1.8-.4-2.3-1.2-.4-.7-.6-1.5-.6-2.5 0-1.2.3-2.1.8-2.8.5-.7 1.2-1 2-1 .9 0 1.6.4 2.1 1.1.5.7.8 1.8.7 3.3h-4c0 .6.1 1 .4 1.3.2.3.6.5.9.5.3 0 .5-.1.6-.2.3-.3.4-.5.5-.9zm.1-1.9c0-.6-.1-1-.4-1.3-.2-.3-.5-.4-.8-.4-.3 0-.6.2-.9.5-.2.3-.3.7-.3 1.2h2.4zm3.3-3h5.4v7.2h-1.6v-5.7h-2.2v3.2c0 .8-.1 1.4-.2 1.7-.2.3-.3.6-.5.7-.2.1-.5.2-.9.2-.3 0-.6 0-1-.1v-1.4h.7c.2 0 .4-.1.4-.3 0-.2.1-.6.1-1.4v-4.1h-.2zm7 0h1.5v4.5l2.5-4.5h1.6v7.2h-1.5v-4.6l-2.5 4.6h-1.5v-7.2zm-179.2 33v-3.5h3.3v1H66v1.4h2.6v1h-3.3v.1zm0-4.6v-1h.5c-.2-.1-.3-.3-.4-.5-.1-.2-.2-.4-.2-.7 0-.5.2-.8.5-1.2.3-.3.7-.5 1.3-.5.6 0 1 .2 1.3.5.3.3.5.7.5 1.2 0 .2 0 .4-.1.6-.1.2-.2.4-.4.6h1.6v1h-4.6zm1.5-1c.4 0 .6-.1.8-.3.2-.2.3-.4.3-.6 0-.2-.1-.4-.2-.6-.2-.2-.4-.2-.8-.2-.3 0-.6.1-.8.2-.2.2-.3.4-.3.6 0 .3.1.5.2.6.3.2.5.3.8.3zm1.7-3.6h-.9v-1h.9v1zm-4.5-4.2v-4.3h4.5v1.1h-3.8v2.1h3.8v1.1H64zm3.5-7.6l.1-1c.3.1.6.3.7.6.2.3.2.6.2 1.1 0 .7-.2 1.2-.6 1.5-.3.3-.7.4-1.1.4-.5 0-1-.2-1.3-.5-.3-.3-.5-.8-.5-1.3 0-.6.2-1 .5-1.4.3-.3.8-.5 1.5-.5v2.6c.3 0 .5-.1.6-.2.1-.2.2-.4.2-.6 0-.2 0-.3-.1-.4.1-.2 0-.3-.2-.3zm-.9-.1c-.3 0-.4.1-.6.2-.1.1-.2.3-.2.5s.1.4.2.6c.1.1.3.2.6.2v-1.5zm-1.3-1.3V253h.7v1.2h2.6v1H66v1.2h-.7v.1zm0-4.1v-1h.5c-.2-.1-.3-.3-.4-.5-.1-.2-.2-.4-.2-.7 0-.5.2-.8.5-1.2.3-.3.7-.5 1.3-.5.6 0 1 .2 1.3.5.3.3.5.7.5 1.2 0 .2 0 .4-.1.6-.1.2-.2.4-.4.6h1.6v1h-4.6zm1.5-1c.4 0 .6-.1.8-.3.2-.2.3-.4.3-.6 0-.2-.1-.4-.2-.6-.2-.2-.4-.2-.8-.2-.3 0-.6.1-.8.2-.2.2-.3.4-.3.6 0 .3.1.5.2.6.3.2.5.3.8.3zm-.5-4.4l-.1.9c-.3-.1-.6-.3-.7-.5-.2-.3-.2-.6-.2-1.1 0-.5 0-.8.1-1 .1-.2.2-.4.4-.5.1-.1.4-.1.8-.1h1.6c.1 0 .3-.1.4-.2v1c-.1 0-.1.1-.3.1h-.1c.1.2.3.4.3.6.1.2.1.4.1.6 0 .4-.1.7-.3.9-.2.2-.4.3-.7.3-.2 0-.4-.1-.5-.2-.1-.1-.3-.3-.3-.4-.1-.2-.1-.5-.2-.8-.1-.5-.1-.8-.2-1h-.1c-.2 0-.3 0-.4.1-.1.1-.1.3-.1.6 0 .2 0 .3.1.4.1.2.2.2.4.3zm.7-1.4c0 .1.1.3.1.6.1.3.1.5.2.6.1.1.2.2.3.2.1 0 .2-.1.3-.2.1-.1.1-.2.1-.4s-.1-.4-.2-.5c-.1-.1-.2-.2-.3-.2H67v-.1zm-3-4.2v-3.6h.8v2.6h3.8v1.1H64v-.1zm1.3-3.8v-1h.5c-.2-.1-.3-.3-.4-.5-.1-.2-.2-.4-.2-.7 0-.5.2-.8.5-1.2.3-.3.7-.5 1.3-.5.6 0 1 .2 1.3.5.3.3.5.7.5 1.2 0 .2 0 .4-.1.6-.1.2-.2.4-.4.6h1.6v1h-4.6zm1.5-1c.4 0 .6-.1.8-.3.2-.2.3-.4.3-.6 0-.2-.1-.4-.2-.6-.2-.2-.4-.2-.8-.2-.3 0-.6.1-.8.2-.2.2-.3.4-.3.6 0 .3.1.5.2.6.3.2.5.3.8.3zm-1.5-3.6v-1h2.1l-2.1-1.6v-1h3.3v1h-2.1l2.1 1.6v1h-3.3zm0-4.6v-2.6h.7v1.6h2.6v1h-3.3zm1.6-2.9c-.3 0-.6-.1-.8-.3-.3-.2-.5-.4-.6-.7-.1-.3-.2-.7-.2-1 0-.6.2-1.1.5-1.4.3-.4.7-.6 1.2-.6s.9.2 1.2.6c.3.4.5.9.5 1.4 0 .4-.1.7-.2 1-.1.3-.3.6-.6.7-.3.2-.7.3-1 .3zm0-1c.3 0 .6-.1.8-.3.2-.2.3-.4.3-.7 0-.3-.1-.5-.3-.7-.2-.2-.4-.3-.8-.3-.3 0-.6.1-.7.3-.2.2-.3.4-.3.7 0 .3.1.5.3.7.1.2.4.3.7.3zm-1.6-3.8v-1h.5c-.2-.1-.3-.3-.4-.5-.1-.2-.2-.4-.2-.7 0-.5.2-.8.5-1.2.3-.3.7-.5 1.3-.5.6 0 1 .2 1.3.5.3.3.5.7.5 1.2 0 .2 0 .4-.1.6-.1.2-.2.4-.4.6h1.6v1h-4.6zm1.5-1c.4 0 .6-.1.8-.3.2-.2.3-.4.3-.6 0-.2-.1-.4-.2-.6-.2-.2-.4-.2-.8-.2-.3 0-.6.1-.8.2-.2.2-.3.4-.3.6 0 .3.1.5.2.6.3.2.5.3.8.3zm.7-5.8l.1-1c.3.1.6.3.7.6.2.3.2.6.2 1.1 0 .7-.2 1.2-.6 1.5-.3.3-.7.4-1.1.4-.5 0-1-.2-1.3-.5-.3-.3-.5-.8-.5-1.3 0-.6.2-1 .5-1.4.3-.3.8-.5 1.5-.5v2.6c.3 0 .5-.1.6-.2.1-.2.2-.4.2-.6 0-.2 0-.3-.1-.4.1-.2 0-.3-.2-.3zm-.9-.1c-.3 0-.4.1-.6.2-.1.1-.2.3-.2.5s.1.4.2.6c.1.1.3.2.6.2v-1.5zm-1.3-1.8v-1h1.2v-1.5h-1.2v-1h3.3v1h-1.4v1.5h1.4v1h-3.3zm0-4.6v-1h1.3c0-.2-.1-.3-.1-.4-.1-.1-.2-.2-.5-.3-.3-.1-.5-.3-.6-.4-.1-.2-.1-.4-.1-.6v-.4h.6c0 .3 0 .4.1.5 0 .1.2.2.4.2.3.1.5.3.6.5.1-.3.3-.6.7-.8h.1l.9-.6v1.1l-1 .5c-.2.1-.3.2-.4.3-.1.1-.1.2-.1.3h1.4v1h-3.3v.1zm1.6-3.4c-.3 0-.6-.1-.8-.3-.3-.2-.5-.4-.6-.7-.1-.3-.2-.7-.2-1 0-.6.2-1.1.5-1.4.3-.4.7-.6 1.2-.6s.9.2 1.2.6c.3.4.5.9.5 1.4 0 .4-.1.7-.2 1-.1.3-.3.6-.6.7-.3.2-.7.3-1 .3zm0-1.1c.3 0 .6-.1.8-.3.2-.2.3-.4.3-.7 0-.3-.1-.5-.3-.7-.2-.2-.4-.3-.8-.3-.3 0-.6.1-.7.3-.2.2-.3.4-.3.7 0 .3.1.5.3.7.1.2.4.3.7.3z"/><path class="st5" d="M293.6 67.3l-38.7-.9c17.1 46.4 21.2 88.6 6.8 125.1l-6.3-5.9-8.1 21.7 27.4-3.8-8.2-7.6c33.4-27.9 41.7-75 27.1-128.6zM91.1 14.4h3.6v-5l.1-.2 3.2 5.2h4.4l-5-7 5-6.7h-4.3l-3.5 5.1V.7H91v5.1L87.5.7h-4.3l5 6.7-5 7h4.4L91 9.2l.1.2v5zm15.1 2.7v-2.8h6.5v2.8h3.6v-5.9h-1.2L111.3.6h-3.8l-3.7 10.6h-1.3v5.9h3.7zm4-9.5l1 3.7h-3.4l1.1-3.7.6-3.1h.1l.6 3.1zm11.1-3.7h6.2V.7h-9.8v13.7h9.8v-3.3h-6.2v-2h5.7v-3h-5.7V3.9zm8.1 10.5h3.6v-4l-.2-2.8h.1l1.9 4.7h2.4l1.8-4.7h.1l-.2 2.8v4h3.6V.7h-3.6l-3 6.7-3-6.7h-3.6v13.7h.1zm29-9.5c.1-2.6-1.9-4.2-4.6-4.2h-5.6v13.7h5.7c3.1 0 4.6-1.3 5-3.5.2-1-.1-2.8-2-3.8 1.1-.5 1.5-1.6 1.5-2.2zM151.8 6V3.6h2.1c1.8 0 1.7 2.4 0 2.4h-2.1zm0 5.3V8.5h2.1c2.1 0 2.1 2.8 0 2.8h-2.1zM167.3.7l5 13.7h-3.8l-.9-2.8h-3.8l-.9 2.8h-3.8L164 .7h3.3zm-2.7 7.9h2.1l-1-4h-.1l-1 4zm15.4 1.5c-.8 1.9-3.9 1.4-3.9-.2V5.2c0-1.7 3.1-2.1 4.1-.4l2.9-1.1C182 1.3 179.9.5 178.2.5c-2.8 0-5.6 1.6-5.6 4.7v4.7c0 3.1 2.8 4.7 5.5 4.7 1.8 0 3.9-.9 5.1-3.1l-3.2-1.4zM191.6 4h3.9v10.4h3.6V.7H188v13.7h3.6V4zm9.4 5.9c0 3.1 2.9 4.7 5.8 4.7s5.8-1.6 5.8-4.7V5.2c0-3.1-2.9-4.7-5.8-4.7S201 2.1 201 5.2v4.7zm3.6-4.7c0-1 1.1-1.6 2.2-1.6 1.2 0 2.3.5 2.3 1.6v4.7c0 1-1.1 1.5-2.3 1.5-1.1 0-2.3-.5-2.3-1.5V5.2h.1zM225.1.7h-3.2L217 14.4h3.8l.9-2.8h3.8l.9 2.8h3.8L225.1.7zm-2.7 7.9l1-4h.1l1 4h-2.1zm11.5 8.5v-2.8h6.5v2.8h3.6v-5.9h-1.2L239 .7h-3.8l-3.7 10.6h-1.3v5.9h3.7v-.1zm4-9.5l1 3.7h-3.4l1.1-3.7.6-3.1h.1l.6 3.1zm7.5 6.8h3.6v-4h2.1c3.4 0 5.1-2.4 5.1-4.9 0-2.4-1.7-4.8-5.1-4.8h-5.6v13.7h-.1zm3.6-7.1V3.9h2.1c2.1 0 2.1 3.4 0 3.4H249zm12.3-3.4h6.2V.7h-9.8v13.7h9.8v-3.3h-6.2v-2h5.7v-3h-5.7V3.9zm15.1 6.2c-.8 1.9-3.9 1.4-3.9-.2V5.2c0-1.7 3.1-2.1 4.1-.4l2.9-1.1c-1.1-2.4-3.2-3.2-4.9-3.2-2.8 0-5.6 1.6-5.6 4.7v4.7c0 3.1 2.8 4.7 5.5 4.7 1.8 0 3.9-.9 5.1-3.1l-3.2-1.4zm7.9-6.4l1 2.5h.1l1.1-2.7 1.3-2.8h3.9l-6.3 13.7h-3.8l2.1-4.4-4.6-9.3h4l1.2 3zm7.1 3.1c0 1.1.9 2 2 2s2-.9 2-2-.9-1.9-2-1.9-2 .8-2 1.9zm0 5.5c0 1.1.9 1.9 2 1.9s2-.9 2-1.9c0-1.1-.9-1.9-2-1.9s-2 .8-2 1.9z"/><path class="st4" d="M85.4 28.2h2.7v7h2.4V26H83v9.2h2.4v-7zm6.5 7h2.4v-2.7h1.4c2.3 0 3.4-1.6 3.4-3.3 0-1.6-1.1-3.3-3.4-3.3h-3.8v9.3zm2.4-4.8v-2.3h1.4c1.4 0 1.4 2.3 0 2.3h-1.4zm9.8-.1h-4.2v2.2h4.2v-2.2zm3.7-.9V26h-2.4v9.2h2.4V32l.1-.1 2.4 3.3h3l-3.7-4.7 3.7-4.5h-3l-2.5 3.4zm13-1.2V26h-7.4v2.2h2.5v7h2.4v-7h2.5zm3.4 7h2.4v-2.7l-.2-1.9h.1l1.3 3.2h1.6l1.2-3.2h.1l-.1 1.9v2.7h2.4V26h-2.4l-2 4.5-2-4.5h-2.4v9.2zm10-3c0 2.1 2 3.2 3.9 3.2s3.9-1.1 3.9-3.2V29c0-2.1-2-3.2-3.9-3.2-2 0-3.9 1-3.9 3.2v3.2zm2.4-3.2c0-.7.7-1 1.5-1s1.6.3 1.6 1v3.1c0 .7-.8 1-1.5 1-.8 0-1.5-.3-1.5-1V29h-.1zm11.5 3.3c-.5 1.3-2.7 1-2.7-.1V29c0-1.1 2.1-1.4 2.7-.3l1.9-.8c-.8-1.6-2.2-2.1-3.3-2.1-1.9 0-3.8 1.1-3.8 3.1v3.2c0 2.1 1.9 3.1 3.7 3.1 1.2 0 2.6-.6 3.4-2.1l-1.9-.8zm5.3-2.9V26H151v9.2h2.4V32l.1-.1 2.4 3.3h3l-3.7-4.7L159 26h-3l-2.6 3.4zm5.4 2.8V29c0-2.1 1.9-3.2 3.9-3.2s3.9 1.1 3.9 3.2v3.1c0 2.1-1.9 3.2-3.9 3.2s-3.9-1-3.9-3.1zm2.4-3.2v3.1c0 .7.8 1 1.5 1 .8 0 1.5-.3 1.5-1V29c0-.7-.8-1-1.6-1-.7 0-1.4.3-1.4 1zm13.5-.2c.1-1.8-1.3-2.8-3.1-2.8h-3.8v9.2h3.8c2.1 0 3.1-.9 3.4-2.4.1-.7 0-1.9-1.3-2.5.7-.3 1-1.1 1-1.5zm-4.4.8V28h1.4c1.2 0 1.2 1.6 0 1.6h-1.4zm0 3.6v-1.9h1.4c1.4 0 1.4 1.9 0 1.9h-1.4zm10.7-.9c-.5 1.3-2.7 1-2.7-.1V29c0-1.1 2.1-1.4 2.7-.3l2-.7c-.8-1.6-2.2-2.1-3.3-2.1-1.9 0-3.8 1.1-3.8 3.1v3.2c0 2.1 1.9 3.1 3.7 3.1 1.2 0 2.6-.6 3.4-2.1l-2-.9zm5.4-2.9V26H184v9.2h2.4V32l.1-.1 2.4 3.3h3l-3.7-4.7 3.7-4.5h-3l-2.5 3.4zm11.3 5.8h2.4V26h-2.2l-2.4 3.9-.8 1.7h-.1l.2-1.4V26h-2.4v9.2h2.3l2.3-3.6.9-1.8h.1l-.2 1.7v3.7h-.1zm7.7-10c1.2 0 2.4-.8 2.4-2.3h-1.9c0 .3-.2.5-.6.5s-.6-.2-.6-.5h-1.9c.1 1.6 1.3 2.3 2.6 2.3zm1.4 10h2.4V26H207l-2.4 3.9-.8 1.7h-.1l.2-1.4V26h-2.4v9.2h2.3l2.3-3.6.9-1.8h.1l-.2 1.7v3.7h-.1zm9.9 0V26h-1.8l-2.5 2.6 1.3 1.1.9-.6v6.2h2.1v-.1zm1.3-1.6c.6 1.2 1.9 1.8 3.2 1.8 1.7 0 3.5-1.1 3.5-3v-3.7c0-1.9-1.7-2.8-3.5-2.8s-3.4.9-3.4 2.8v.5c0 2.3 2.8 3.4 4.6 2.2v.9c0 .5-.6.9-1.2.9-.5 0-1.1-.2-1.5-.8l-1.7 1.2zm2-5c0-1 2.4-1 2.4 0v.7c0 1-2.4 1-2.4 0v-.7zm12.3-1c-.6-1.2-1.7-1.7-3-1.7-1.7 0-3.5 1.1-3.5 2.9v3.7c0 1.9 1.7 2.9 3.5 2.9s3.4-1 3.4-2.9V32c0-2.3-2.8-3.4-4.6-2.2v-.9c0-.6.6-.9 1.2-.9.5 0 1 .2 1.3.7l1.7-1.1zm-1.9 4.9c0 1.1-2.4 1-2.4 0v-.7c0-1 2.4-1 2.4 0v.7zm8-6.5h-2.2l-3.3 9.2h2.6l.6-1.8h2.5l.6 1.8h2.6l-3.4-9.2zm-1.8 5.3l.7-2.7h.1l.7 2.7h-1.5zM91.9 66c.1-1.8-1.3-2.8-3.1-2.8H85v9.2h3.8c2.1 0 3.1-.9 3.4-2.4.1-.7 0-1.9-1.3-2.5.7-.4.9-1.1 1-1.5zm-4.5.8v-1.6h1.4c1.2 0 1.2 1.6 0 1.6h-1.4zm0 3.5v-1.9h1.4c1.4 0 1.4 1.9 0 1.9h-1.4zm13.5-2.8c.7-.3 1-1.2 1-1.8 0-1.7-1.2-2.7-3.2-2.7-1.4 0-2.4.5-3.1 1.4l1.3 1.2c.3-.2 1-.7 1.7-.7.8 0 1.2.4 1.2.9 0 .6-.4 1-1.1 1h-1.3v1.6h1.4c.8 0 1.2.4 1.2 1.1 0 .7-.6 1-1.5 1-.6 0-1.3-.3-1.8-.9L95 70.7c.7 1.1 2 1.8 3.4 1.8 2.4 0 3.8-1.1 3.8-2.9 0-.8-.3-1.7-1.3-2.1zm4.2 6.7v-1.8h4.4v1.8h2.4v-3.9h-.9l-2.5-7.1H106l-2.5 7.1h-.9v3.9h2.5zm2.7-6.4l.7 2.5h-2.3l.7-2.5.4-2.1h.1l.4 2.1zm9.7-4.7h-2.2l-3.3 9.2h2.6l.6-1.8h2.5l.6 1.8h2.6l-3.4-9.2zm-1.8 5.3l.7-2.7h.1l.7 2.7h-1.5zm8.1.5h2.7v3.5h2.4v-9.2h-2.4v3.5h-2.7v-3.5h-2.4v9.2h2.4v-3.5zm11.9 3.5h2.4v-9.2h-2.2l-2.4 3.9-.8 1.7h-.1l.2-1.4v-4.2h-2.4v9.2h2.3l2.3-3.6.9-1.8h.1l-.2 1.7v3.7h-.1zm9.1 0h2.4v-9.2H145l-2.4 3.9-.8 1.7h-.1l.2-1.4v-4.2h-2.4v9.2h2.3l2.3-3.6.9-1.8h.1l-.2 1.7v3.7h-.1zm8.2 1.8v-1.8h4.4v1.8h2.4v-3.9h-.8l-2.5-7.1H154l-2.5 7.1h-.9v3.9h2.4zm2.7-6.4l.7 2.5H154l.7-2.5.4-2.1h.1l.5 2.1zm4.6 1.5c0 2.1 2 3.2 3.9 3.2s3.9-1.1 3.9-3.2v-3.1c0-2.1-2-3.2-3.9-3.2-2 0-3.9 1-3.9 3.2v3.1zm2.3-3.1c0-.7.7-1 1.5-1s1.6.3 1.6 1v3.1c0 .7-.8 1-1.5 1-.8 0-1.5-.3-1.5-1v-3.1h-.1zm6.7 6.2h2.4v-2.7l-.2-1.9h.1l1.3 3.2h1.6l1.2-3.2h.1l-.1 1.9v2.7h2.4v-9.2h-2.4l-2 4.5-2-4.5h-2.4v9.2zm14.9-9.3H182l-3.3 9.2h2.6l.6-1.8h2.5l.6 1.8h2.6l-3.4-9.2zm-1.8 5.3l.7-2.7h.1l.7 2.7h-1.5zm8.2 4h2.4v-2.7l-.2-1.9h.1l1.3 3.2h1.6l1.2-3.2h.1l-.1 1.9v2.7h2.4v-9.2H197l-2 4.5-2-4.5h-2.4v9.2zm12.7-7.1h4.2v-2.2h-6.6v9.2h6.6v-2.2h-4.2v-1.4h3.8v-2h-3.8v-1.4zm12.6 4.1c0-1.8-.8-2.8-3.4-2.8h-1.4v-1.4h4v-2h-6.4v9.2h3.8c2.2 0 3.4-1.2 3.4-3zm-4.8.9v-2.1h1.4c.7 0 1.1.4 1.1 1s-.3 1.1-1.1 1.1h-1.4zm8.2-5h4.2v-2.2h-6.6v9.2h6.6v-2.2h-4.2v-1.4h3.8v-2h-3.8v-1.4zm9 .4l.5 2.7 1.2 3.9h2.6l-3.2-9.2h-2.2l-3.2 9.2h2.6l1.1-3.9.6-2.7zm10.1 6.7h2.4v-9.2h-2.2l-2.4 3.9-.8 1.7h-.1l.2-1.4v-4.2h-2.4v9.2h2.3l2.3-3.6.9-1.8h.1l-.2 1.7v3.7h-.1zM77.2 80.8c-1.4 1.6-2.1 3.8-2.1 5.8s.7 4.2 2.1 6.1l1.7-1.1c-2.2-3.2-2.2-6.6 0-9.8l-1.7-1zm2.5 10.3h2.4v-2.7l-.2-1.9h.1l1.3 3.2h1.6l1.2-3.2h.1l-.1 1.9v2.7h2.4v-9.2h-2.4l-2 4.5-2-4.5h-2.4v9.2zm12.7-7h4.2v-2.2H90v9.2h6.6v-2.2h-4.2v-1.4h3.8v-2h-3.8v-1.4zm12.2 0v-2.2h-7.4v2.2h2.5v7h2.4v-7h2.5zm1 7h2.4v-2.7h1.4c2.3 0 3.4-1.6 3.4-3.3 0-1.6-1.1-3.3-3.4-3.3h-3.8v9.3zm2.3-4.8V84h1.4c1.4 0 1.4 2.3 0 2.3h-1.4zm5.7 1.8c0 2.1 2 3.2 3.9 3.2s3.9-1.1 3.9-3.2V85c0-2.1-2-3.2-3.9-3.2-2 0-3.9 1-3.9 3.2v3.1zm2.4-3.2c0-.7.7-1 1.5-1s1.6.3 1.6 1V88c0 .7-.8 1-1.5 1-.8 0-1.5-.3-1.5-1v-3.1h-.1zm13.1-.6l-2.1 3.1 2.1 3.1 2-1.1-1.4-2 1.4-2-2-1.1zm3.5 0l1.9 1.1-1.4 2 1.4 2-2 1.1-2.1-3.1 2.2-3.1zm4.9 8.6v-1.8h4.4v1.8h2.4V89h-.8l-2.5-7.1h-2.5L136 89h-.9v3.9h2.4zm2.7-6.4l.7 2.5h-2.3l.7-2.5.4-2.1h.1l.4 2.1zm11.9-1.8c.1-1.8-1.3-2.8-3.1-2.8h-3.8v9.2h3.8c2.1 0 3.1-.9 3.4-2.4.1-.7 0-1.9-1.3-2.5.7-.3 1-1.1 1-1.5zm-4.4.8v-1.6h1.4c1.2 0 1.2 1.6 0 1.6h-1.4zm0 3.6v-1.9h1.4c1.4 0 1.4 1.9 0 1.9h-1.4zm5.7-1c0 2.1 2 3.2 3.9 3.2s3.9-1.1 3.9-3.2V85c0-2.1-2-3.2-3.9-3.2-2 0-3.9 1-3.9 3.2v3.1zm2.4-3.2c0-.7.7-1 1.5-1s1.6.3 1.6 1V88c0 .7-.8 1-1.5 1-.8 0-1.5-.3-1.5-1v-3.1h-.1zm6.7 6.2h2.4v-2.7h1.4c2.3 0 3.4-1.6 3.4-3.3 0-1.6-1.1-3.3-3.4-3.3h-3.8v9.3zm2.4-4.8V84h1.4c1.4 0 1.4 2.3 0 2.3h-1.4zm8.2-2.2h4.2v-2.2h-6.6v9.2h6.6v-2.2h-4.2v-1.4h3.8v-2h-3.8v-1.4zm5.4 7h6.2v1.8h2.3v-4.1h-1.1v-7h-2.4v7h-2.6v-7h-2.4v9.3zm16.8-2.9c-.5 1.3-2.7 1-2.7-.1v-3.2c0-1.1 2.1-1.4 2.7-.3l1.9-.8c-.8-1.6-2.2-2.1-3.3-2.1-1.9 0-3.8 1.1-3.8 3.1V88c0 2.1 1.9 3.1 3.7 3.1 1.2 0 2.6-.6 3.4-2.1l-1.9-.8zm5.3-4.1h2.7v7h2.4v-9.2h-7.4v9.2h2.4v-7h-.1zm6.3 4c0 2.1 2 3.2 3.9 3.2 2 0 3.9-1.1 3.9-3.2V85c0-2.1-2-3.2-3.9-3.2-2 0-3.9 1-3.9 3.2v3.1zm2.4-3.2c0-.7.7-1 1.5-1s1.6.3 1.6 1V88c0 .7-.8 1-1.5 1-.8 0-1.5-.3-1.5-1v-3.1h-.1zm6.7 6.2h2.4v-2.7h1.4c2.3 0 3.4-1.6 3.4-3.3 0-1.6-1.1-3.3-3.4-3.3H216v9.3zm2.4-4.8V84h1.4c1.4 0 1.4 2.3 0 2.3h-1.4zm12.7-2.2v-2.2h-7.4v2.2h2.5v7h2.4v-7h2.5zm4.6-2.2l3.4 9.2h-2.6l-.6-1.8h-2.5l-.6 1.8h-2.6l3.3-9.2h2.2zm-1.8 5.3h1.4l-.7-2.7h-.1l-.6 2.7zm7.4 3.3l2.1-3.1-2.1-3.1-1.9 1.1 1.4 2-1.4 2 1.9 1.1zm3.3 0l-1.9-1.1 1.4-2-1.4-2 2-1.1 2.1 3.1-2.2 3.1zm2.5-8.6c2.2 3 2.1 6.5 0 9.7l1.6 1.1c1.4-1.9 2.1-4.1 2.1-6.1s-.7-4.1-2.1-5.7l-1.6 1z"/><path class="st5" d="M89.7 54.4h2.4v-2.7l-.2-1.9h.1l1.3 3.2H95l1.3-3.2h.1l-.1 1.9v2.7h2.4V45h-2.4l-2 4.6-2-4.6h-2.4v9.4h-.2zm15.1-9.4h-2.2l-3.4 9.4h2.6l.6-1.9h2.6l.6 1.9h2.6l-3.4-9.4zm-1.8 5.4l.7-2.7h.1l.7 2.7H103zm5.9-5.4v9.4h2.4v-7.1h3.5V45h-5.9zm10.5 0l3.4 9.4h-2.6l-.6-1.9H117l-.6 1.9h-2.6l3.4-9.4h2.2zm-1.9 5.4h1.4l-.7-2.7h-.1l-.6 2.7zm11.2-1c.7-.3 1-1.2 1-1.8 0-1.7-1.2-2.7-3.3-2.7-1.4 0-2.4.5-3.2 1.4l1.3 1.2c.3-.2 1-.7 1.8-.7s1.2.4 1.2.9c0 .6-.4 1-1.2 1h-1.4v1.6h1.4c.8 0 1.2.4 1.2 1.1 0 .7-.6 1-1.5 1-.6 0-1.3-.3-1.8-.9l-1.5 1.2c.7 1.2 2 1.8 3.5 1.8 2.4 0 3.9-1.1 3.9-2.9-.1-.8-.4-1.7-1.4-2.2zm7.8 5h2.4V45h-2.2l-2.5 4-.8 1.7h-.1l.2-1.4V45h-2.4v9.4h2.3l2.3-3.7.9-1.8h.1l-.2 1.8v3.7zm6.4-3.5h2.8v3.5h2.4V45h-2.4v3.6h-2.8V45h-2.4v9.4h2.4v-3.5zm12.4-5.8h-2.7l-.8 2.7h2.1l1.4-2.7zm3.1 0l-1.4 2.7h-2.1l.8-2.7h2.7zm1.6 11.2v-1.9h4.4v1.9h2.5v-4h-.8l-2.6-7.3h-2.6l-2.5 7.3h-.9v4h2.5zm2.7-6.5l.7 2.5H161l.7-2.5.4-2.1h.1l.5 2.1zm12.2-1.9c.1-1.8-1.3-2.9-3.1-2.9h-3.9v9.4h3.9c2.1 0 3.2-.9 3.4-2.4.1-.7 0-1.9-1.4-2.6.8-.3 1-1.1 1.1-1.5zm-4.6.8V47h1.4c1.2 0 1.2 1.7 0 1.7h-1.4zm0 3.6v-1.9h1.4c1.4 0 1.5 1.9 0 1.9h-1.4zm8.5-5h4.2V45h-6.7v9.4h6.7v-2.2h-4.2v-1.4h3.9v-2.1h-3.9v-1.4zm5.6 7.1h2.4v-2.7h1.4c2.3 0 3.5-1.7 3.5-3.3 0-1.7-1.2-3.3-3.5-3.3h-3.8v9.3zm2.4-4.8v-2.3h1.4c1.5 0 1.5 2.3 0 2.3h-1.4zm11.3 4.8h2.4V45h-2.2l-2.5 4-.8 1.7h-.1l.2-1.4V45h-2.4v9.4h2.3l2.3-3.7.9-1.8h.1l-.2 1.8v3.7zm13.4-7.1V45H204v2.3h2.6v7.2h2.5v-7.2h2.4zm1.8 9h-2.5v-4h.9l2.5-7.3h2.6l2.6 7.3h.8v4h-2.5v-1.9h-4.4v1.9zm2.7-6.5l-.5-2.1h-.1l-.4 2.1-.7 2.5h2.3l-.6-2.5zm7.6-1.3V45h-2.4v9.4h2.4v-3.3l.1-.1 2.5 3.4h3.1l-3.8-4.8 3.8-4.6h-3l-2.7 3.5zm9.4-3.4h-2.7l-.8 2.7h2.1l1.4-2.7zm3.2 0l-1.4 2.7h-2.1l.8-2.7h2.7z"/></svg>