<svg id="Слой_1" xmlns="http://www.w3.org/2000/svg" viewBox="0 0 595.3 510.2"><style>.st0{fill:url(#SVGID_1_)}.st1{fill:#c85149}.st2{fill:#fff}.st3{fill:#0e0f0f}</style><linearGradient id="SVGID_1_" gradientUnits="userSpaceOnUse" x1="132.297" y1="399.139" x2="478.294" y2="76.492" gradientTransform="matrix(1 0 0 -1 0 510.11)"><stop offset="0" stop-color="#ba9b63"/><stop offset=".31" stop-color="#faf5ad"/><stop offset=".66" stop-color="#ba9b63"/><stop offset="1" stop-color="#faf5ad"/></linearGradient><circle class="st0" cx="305.3" cy="272.3" r="163.7"/><path class="st1" d="M305.4 510.4c-140.3 0-254-113.7-254-254V255h90v1.4c0 90.6 73.4 164 164 164 82.1 0 150-60.3 162.1-139h90.7c-12.6 128.6-120.9 229-252.8 229z"/><path class="st1" d="M511.3 225.5l-42 36-42 36.1h168l-42-36.1z"/><path class="st1" d="M511.3 238.1l-36.9 31.7-15.4 13.3-.5-20.3c-2-83.7-70.6-150.5-154.3-150.5-66.1 0-124.5 42.1-145.8 103.6h36.3l-96.8 87.5L0 215.8h45.4C69.4 92.7 177.8 2.9 304.2 2.9c145.3 0 263.2 117.5 263.6 262.8l.1 21-56.6-48.6z"/><path class="st2" d="M304.2 12.5c140 0 253.6 113.3 254 253.2l-4.9-4.2-42-36.1-42 36.1-1.2 1c-2.2-88.7-74.7-159.9-163.9-159.9-76.4 0-140.5 52.2-158.8 122.9h27.7l-75.2 63.3L23 225.5h30.5c19.6-120.8 124.4-213 250.7-213z"/><path class="st1" d="M154.8 103c-6.7-6.2-15.2-4.7-21.2 2.2l-12.5 14.5 36.1 31.3 12.8-14.7c6.9-8 6.8-15 1.8-20.9-2.4-2.8-7.5-6.3-14.3-3.5.9-3.9-1.1-7.5-2.7-8.9zm-11.6 19.7l-6.4-5.6 4.6-5.3c4-4.6 10.3 1.1 6.4 5.6l-4.6 5.3zm13.9 12.1l-7.4-6.4 4.6-5.3c4.7-5.4 12.2.9 7.4 6.4l-4.6 5.3zM185.9 82l-1.8-18.3 11.8-7.6 1.7 27.4 24.1 12.8-11.8 7.6-15.8-9.2 1.9 18.2-11.9 7.6-1.5-27.3-24.2-12.9 11.9-7.6 15.6 9.3zm34.9-2.6c3.5 10.4 14.6 12.3 24 9.2 9.4-3.2 17-11.5 13.5-21.9l-5.2-15.5c-3.5-10.4-14.6-12.3-24-9.2-9.4 3.2-17 11.4-13.5 21.9l5.2 15.5zm6.2-19.3c-1.1-3.3 1.8-6.3 5.4-7.5 3.7-1.3 8-.9 9.2 2.6l5.2 15.5c1.1 3.3-2 6.2-5.6 7.4s-7.9.9-9-2.4L227 60.1zm56.3 28.7l-.7-9.6 23.3-1.8.7 9.6 12.1-.9-1.6-20.4-5.8.4-2.8-36.8-31.1 2.4.1 16c.1 10.9 1.3 20.9-8.1 21.6l1.6 20.4 12.3-.9zm15.9-21.7l-11.1.8c1-3.3 1.3-7.5 1.2-11.1l-.1-14.5 8.1-.6 1.9 25.4zm43.7-3.4l13.4 3.1-4.1 17.6 11.8 2.7 10.7-46.5-11.8-2.7-4.1 17.6-13.4-3.1 4.1-17.6-11.8-2.7L327 78.5l11.8 2.7 4.1-17.5zm72 31c4.5-7.9 3.8-15.2-7.4-21.7l-6.2-3.6 8.1-14.1-10.5-6.1-23.8 41.4 17 9.8c9.2 5.4 18.2 2.4 22.8-5.7zm35.9-15.2l-29.5 39-9.7-6.7 28.6-39.6 10.6 7.3zm-59.9 8.1l5.7-9.8 6.2 3.6c2.9 1.6 3.7 4.3 1.9 7.3-1.5 2.6-4 4.5-7.6 2.5l-6.2-3.6zm74.6 24.4l13.8 15.9 8.6-7.4-21.8-25.1-36.1 31.2 21.8 25.1 8.6-7.5-13.8-15.9 5.4-4.7 12.7 14.6 7.9-6.8-12.7-14.5 5.6-4.9z"/><path class="st2" d="M74.3 310.5l3.6 10.6 12-4.1 8.2-3.6.2.3-12.4 10.5 2.5 7.3 16.2.6.1.4-8.7 2.2-12.1 4 3.6 10.6 41.8-14.1-3.6-10.6-23.4-1.9 17.4-15.7-3.6-10.6-41.8 14.1zm54.1 46.6l-5.8 3.7 9.6 15-8.1 5.2-9.6-15-5.6 3.6 10.5 16.4-8.9 5.7-16.5-26 37.1-23.8 16.6 25.8-8.8 5.6-10.5-16.2zm8.9 63.7l8.1 7.7 11.2-11.7.6-.1-4.2 19.1 10.1 9.6 4.1-27.1 26.4-4.8-9.7-9.3-19.4 4.3 11.4-11.9-8.1-7.7-11.5 12 3.4-19.6-9.7-9.3-3.6 26.6-26.8 5.4 10.1 9.6 18.9-5.1-.1.6-11.2 11.7zm61 14l18.5-8.2 12 6.9-25.9 10.1 3.9 28.1-12.1-7-2-19.3-.6.2-7.6 13.2-9.7-5.6 22-38.2 9.7 5.6-8.2 14.2zm21.2 26.1c-3.2 9.6 3.8 17.3 12.5 20.2s18.9 1.1 22.1-8.5l4.8-14.3c3.2-9.6-3.8-17.3-12.5-20.2s-18.9-1.1-22.1 8.5l-4.8 14.3zm15.4-10.8c1-3.1 4.9-3.6 8.2-2.5 3.4 1.2 6.4 3.8 5.3 7.1l-4.8 14.3c-1 3-4.9 3.4-8.3 2.3-3.4-1.1-6.3-3.8-5.2-6.8l4.8-14.4zm29.5 39.1l11.1.8 1.2-21.6 4.8 15.5 7.6.6 6.9-14.7-2 21.6 11.2.9 3.3-44-11.1-.8-10.9 20.8-7.6-22.2-11.1-.8-3.4 43.9zm67.6-15.6l12.6-1.8 2.4 16.5 11.1-1.6-6.4-43.6-11.1 1.6 2.4 16.5-12.6 1.8-2.4-16.5-11.1 1.6 6.4 43.6 11.1-1.6-2.4-16.5zm43.9-40.7l-9.4 3.7 1.9 46.7 11.1-4.4-.7-9.2 10.9-4.3 5.9 7.2 11.1-4.4-30.8-35.3zm1.5 26.7l-1.7-13.2.3-.1 7.6 10.9-6.2 2.4zm44.8-40.5l-9.9 6.3 18.1 28.3-9.5 6.1-18.1-28.3-9.9 6.3-5.7-8.9 29.2-18.7 5.8 8.9zm25.6.3l9.2-8.8 11.5 12 8.1-7.7-30.4-31.9-8.1 7.7 11.5 12.1-9.2 8.8-11.5-12.1-8.1 7.7 30.4 31.9 8.1-7.7-11.5-12zm44.9-53.3c7.3 4.7 9.6 13 4.3 21.3l-9.8 15.3-37.1-23.8 6-9.4 12.6 8.1 3.6-5.6c6.5-10.2 13.3-10.5 20.4-5.9zm-17-29l-5.1 9.6 40.6 19.8 5.1-10.4-40.6-19zm9.4 50.8l-8.8-5.6 3.6-5.6c1.6-2.6 4.1-3.2 6.8-1.5 2.4 1.5 4 3.9 2 7.1l-3.6 5.6zm6.2-64.4l6.5 2.2 5.7-16.9 9.1 3.1-5.7 16.9 6.3 2.1 6.2-18.4 10 3.4-9.8 29.1-41.8-14.1 9.8-29.1 9.9 3.4-6.2 18.3z"/><path class="st3" d="M194.2 230.2v12.7c0 11.2-1.3 15.5-4.8 19.7-1-.6-2.1-1.1-3.1-1.6v12.7c3.2 2.3 6.3 4.6 9.5 6.3v-8.4c7.2 2.6 14.3 4.5 21.5 6v10.2c3.2.7 6.3 1.5 9.5 2.1v-19c-1.1-.1-2.1-.2-3.2-.3v-44.8c-9.8 1.7-19.6 3.2-29.4 4.4zm19.6 4.9v34.4c-4.9-.9-9.7-1.9-14.6-3 3-4.9 4.7-9.7 4.7-20.2V236l9.9-.9zm18.8-10.5V280c3.5.4 7.1.8 10.6 1.1 4.8-13.8 9.6-28.2 14.4-43h.1c-1 5.5-1.2 11.9-1.2 21.2v22.9c3.1.2 6.1.4 9.2.6v-62.2c-3.5.4-7.1.7-10.6 1.1-4.8 15.1-9.6 29.6-14.4 43.6h-.1c.9-4.8 1.2-13.5 1.2-20.3v-21.6c-3.1.3-6.2.7-9.2 1.2zm49.1 13.2c0-5.8 2-10 5.9-10.2 4.2-.2 5.5 4.6 5.5 8.9 0 5.8-2.8 8.4-6.5 8.5-.7 0-1.4.1-2.1.1v9.2c.7 0 1.4-.1 2.1-.1 4.1 0 7.2 2.7 7.2 10.4 0 6.8-1.7 10.8-6.5 10.7-5-.1-6.4-4.5-6.4-8.9-3.2 0-6.4 0-9.6-.1 0 13.5 8.1 18.7 16.6 19 10.3.3 16-6.4 16-19.6 0-9.9-3.5-15.2-8.7-16.8 4.7-1.6 8-7.6 8-14.4 0-13.3-8.6-17.2-15.6-16.8-9.8.6-15.5 9.4-15.5 20.4 3.2 0 6.4-.2 9.6-.3zm25.8 46.1c3.5-.1 7-.2 10.6-.4 1-5.7 2.1-11.4 3.1-17.1 3.7-.1 7.4-.2 11.2-.4.8 5.5 1.6 11 2.4 16.6 3.5-.3 7.1-.5 10.7-.7-3.8-20.7-7.7-41.7-11.5-63.1-4.4-.3-8.8-.4-13.2-.5-4.5 21.6-8.9 43.6-13.3 65.6zm14.9-27.3c1.6-10.1 3.2-20.1 4.8-30.1l3.9 30c-2.9.1-5.8.1-8.7.1zm27.1-36.8v61.6c3.5-.3 7.1-.6 10.6-.9 4.8-14.6 9.6-28.7 14.4-42.3h.1c-1 5-1.2 10.9-1.2 19.5v21.4c3.1-.3 6.2-.6 9.2-1V224c-3.6-.5-7.1-1.1-10.7-1.6-4.8 13.4-9.6 27.4-14.4 41.9h-.1c.9-5 1.2-13.9 1.2-21.1v-22.5c-3-.3-6-.5-9.1-.9zm5.9-15.8c0 6.5 2.1 12.8 10.1 13.9 8.3 1.2 10.4-4 10.4-10-1.7-.4-3.4-.7-5.1-1.1 0 4.3-2 6.1-5.2 5.6s-5.2-3.1-5.2-7.5c-1.6-.3-3.3-.6-5-.9zm44.3 23.3c-3.3-.7-6.6-1.3-9.8-2v52c3.3-.4 6.5-.8 9.8-1.4v-22.5c4.3.1 8.7.1 13 .2v20c3.3-.7 6.6-1.5 9.9-2.4v-37.8c-3.3-1.1-6.6-2.1-9.9-3v16.7c-4.3-.3-8.7-.7-13-1v-18.8zM220.5 333.6V331c0-9.5-5.8-16.7-15.5-22.8-11.1-6.9-16.2-8.9-16.2-.1v13.7c0 6.6 2.1 19.1 16 34.2 11.4 12.4 15.7 5.8 15.7-3.6v-2.2c-3.3-2.2-6.6-4.3-9.8-6.9v2.6c0 6.2-2.1 6.9-5.9 3-4.3-4.3-5.9-8.1-5.9-13.8v-17c0-5.4 1.7-5.8 6-3 4.1 2.7 5.8 5.6 5.8 11.7v1.1c3.2 2.1 6.5 3.9 9.8 5.7zm16.7-11.1c-3.3-1-6.6-2-9.8-3.2v53.9c3.3 2.2 6.5 4 9.8 5.9v-17c1.3-1.2 2.6-2.5 3.9-3.8 2.9 8.9 5.8 17.9 8.6 27 3.7 1.5 7.3 3 11 4.3-4.5-13.1-9.1-26.1-13.6-38.8 4.4-7.2 8.8-14.8 13.2-22.7-3.7-.7-7.4-1.5-11.2-2.3-4 7.4-8 14.6-12 21.3.1-8.2.1-16.3.1-24.6zm28.7 6.6v62.3c3.5 1.1 7.1 2.1 10.6 3 4.8-14.5 9.6-29.3 14.4-44.4-1 5.7-1.2 12.5-1.2 22.5V397c3.1.5 6.1.8 9.2 1.1v-65.5c-3.5-.2-7.1-.4-10.6-.7-4.8 15.2-9.6 30-14.4 44.5h-.1c.9-5 1.2-14.6 1.2-22.2v-23.7c-3-.4-6-.9-9.1-1.4zm46.7 3.4v20.4c0 18.1-1.3 25.6-4.8 35.4h-3.1v23.2c3.2 0 6.3-.2 9.5-.5v-13.1c7.2-1.1 14.3-2.6 21.5-4.5v12.8c3.2-1.1 6.3-2.2 9.5-3.4v-22c-1.1.4-2.1.7-3.2 1v-53.2c-9.7 1.7-19.6 3-29.4 3.9zm19.7 7.5v44.6c-4.9 1.2-9.7 2.1-14.6 2.9 3-8.6 4.7-16.3 4.7-31.2v-14.8c3.2-.4 6.5-.9 9.9-1.5zm28.6-15.3c-3.3.8-6.6 1.5-9.8 2.2v61.3c3.3-1.3 6.5-2.7 9.8-4.2v-17.9c1.3-2.4 2.6-4.9 3.9-7.4 2.9 6.6 5.8 13 8.6 19 3.7-2 7.3-4.1 11-6.5-4.5-7.5-9.1-15.8-13.6-24.5 4.4-10 8.8-19.5 13.2-28.9-3.7 1.3-7.4 2.4-11.2 3.5-4 9.5-8 19.1-12 29 .1-8.4.1-17 .1-25.6zm25.5 45.5c3.5-2.3 7-4.9 10.6-7.4 1-5.1 2.1-10.2 3.1-15.1 3.7-2.6 7.4-5.6 11.1-8.7.8 3.1 1.6 6 2.5 8.8 3.5-3.9 7.1-8.3 10.6-13-3.8-8-7.7-17.7-11.5-29.2-4.4 2.3-8.8 4.5-13.2 6.4-4.5 18.7-8.9 38-13.2 58.2zm14.9-30.5c1.6-8.4 3.2-16.6 4.7-24.8 1.3 6.4 2.6 12.5 4 18.5-2.9 2.2-5.8 4.4-8.7 6.3zm-220-162.5v33.1c9.3-3.5 18.5-7.2 27.8-10.8v-5.9l-17.9 6.8v-7.2l16.4-9.5v-5.8l-16.4 8.4v-6.5c6-4.8 11.9-9.1 17.9-13.1v-9.4l-27.8 19.9zm40.3-24.4V166c0 11.6-1.3 17-4.7 24.5-1 .4-2.1.8-3.1 1.2v14.2c3.2-.9 6.3-1.9 9.5-2.7v-8.6c7.2-2.2 14.3-4.2 21.5-6v9.5c3.1-.6 6.3-1.2 9.5-1.8V179c-1.1.3-2.1.6-3.2.8v-41.1c-9.8 4.2-19.6 8.9-29.5 14.1zm19.7-2.8v32.5c-4.9 1.4-9.7 2.9-14.6 4.5 3-6.6 4.7-12.2 4.7-22.5v-10.2c3.3-1.4 6.6-2.9 9.9-4.3zm18.8-14.2v49.8c3.5-.7 7.1-1.2 10.7-1.8 4.8-13.1 9.6-26.5 14.4-39.9h.1c-1 4.9-1.2 10.4-1.2 18.4v19.8c3.1-.3 6.2-.6 9.2-.8v-53c-3.6.5-7.1 1.1-10.7 1.7-4.8 13.5-9.6 27-14.4 40.4h-.1c.9-4.4 1.2-12.2 1.2-18.3V133c-3.1.8-6.2 1.7-9.2 2.8zm50.1-8.7c-3.3-.1-6.6.1-9.8.3v53.3c3.3-.2 6.5-.2 9.8-.2v-24.7c4.3.1 8.7.4 13 .7v24.4l9.9.9v-52c-3.3-.7-6.6-1.2-9.9-1.7v20.4c-4.3-.4-8.7-.7-13-.8v-20.6zm39.9 34.2c1.9.5 3.8.9 5.7 1.4 3.7 1 5.8 4.9 5.8 9.6 0 5.4-2.1 6.9-5.8 6.1l-5.7-1.2v-15.9zm0-26.8c-3.3-1.1-6.6-2-9.8-2.9v51.2c6.3 1 12.7 2.1 19 3.4 7.9 1.7 12.4-3 12.4-11.9 0-6.5-5.2-15.6-13.2-18.2-2.8-.9-5.5-1.6-8.3-2.4-.1-6.4-.1-12.8-.1-19.2zm38.9 17.3c-3.3-1.9-6.6-3.7-9.9-5.4v44.8c3.3.9 6.6 2 9.9 3v-42.4zm7.2 4.5v40.5c3.5 1.4 7.1 2.8 10.6 4.3 4.8-6.3 9.6-11.5 14.4-15.2v.1c-1 1.9-1.2 5-1.2 9.8v12.1c3.1 2 6.2 4.1 9.2 6.5v-26.9c-3.6-4.9-7.1-9.2-10.7-13.1-4.8 3.8-9.6 9-14.4 15.2h-.1c.9-2.7 1.2-8.2 1.2-12.7v-14.2c-2.9-2.1-5.9-4.4-9-6.4zm5.9-6.4c1.7 1.4 3.4 2.8 5.1 4.3 0 2.8 2.1 5.9 5.2 8.8 3.3 3.1 5.2 3.9 5.2 1.5 1.7 1.9 3.4 4.1 5.1 6.2 0 3.3-1.7 3.6-10.4-4.5-7.7-7.1-10.2-12.2-10.2-16.3z"/></svg>